<svg id="Layer_1" data-name="Layer 1" xmlns="http://www.w3.org/2000/svg" viewBox="0 0 500 500"><defs><style>.cls-1{fill:#f27507;width:64px;height:74px}</style></defs><title>Artboard 1</title><path class="cls-1" d="M48.35,397c10.2,0,15.65-5.7,20-10.29,4.71-4.93,8.78-9.19,19.38-9.19,10,0,13.38,3.72,17.7,8.43,4.51,4.92,10.12,11,22.36,11S148,391,155,385.69c5.75-4.38,10.72-8.16,17.63-8.16s11.12,3.63,16.48,8.23C195.22,391,202.17,397,213.69,397c11.17,0,17.67-5.68,23.4-10.68,5.4-4.72,10.07-8.79,19-8.79,8.22,0,11.27,3.32,15.48,7.92C276.28,390.59,282.15,397,295,397c12.4,0,20.28-5.87,27.24-11.05,6.07-4.52,11.31-8.42,19.22-8.42,8.17,0,12.29,4.15,17.06,9S369,397,378.48,397c9.21,0,15.3-5.35,20.67-10.07,5.74-5,10.69-9.4,19.67-9.4,7.62,0,9.61,2.88,12.9,7.66,3.44,5,8.15,11.81,19.92,11.81a6.14,6.14,0,0,0,0-12.29c-5.32,0-6.82-2.17-9.81-6.5-3.78-5.47-8.95-13-23-13-13.6,0-21.46,6.91-27.78,12.46-5.09,4.48-8.19,7-12.56,7-4.21,0-6.74-2.35-11.22-6.87-5.51-5.56-12.38-12.45-25.44-12.58V121a6.1,6.1,0,0,0,.43-2.22,47.49,47.49,0,0,1,95,0,6.14,6.14,0,1,0,12.29,0,59.74,59.74,0,0,0-119.43-2.53,6.1,6.1,0,0,0-.56,2.53V195H170.46v-76.2a47.49,47.49,0,0,1,95,0,6.14,6.14,0,1,0,12.29,0,59.78,59.78,0,0,0-119.56,0v250a71,71,0,0,0-10.63,7.09c-6.2,4.72-11.55,8.8-19.71,8.8-6.84,0-9.27-2.65-13.3-7.06-5.07-5.53-11.38-12.42-26.76-12.42-15.85,0-23,7.51-28.26,13-4.19,4.39-6.41,6.49-11.15,6.49a6.14,6.14,0,0,0,0,12.29ZM170.46,207.27H329.54v47H170.46Zm0,59.31H329.54v52.91H170.46Zm0,65.2H329.54v35.59c-5.76,2.14-10.37,5.56-14.62,8.73-6.21,4.63-11.57,8.62-19.9,8.62-7.47,0-10.23-3-14.41-7.57-4.86-5.3-10.91-11.9-24.54-11.9S235,371.8,229,377.07c-5.08,4.44-8.76,7.65-15.32,7.65-7,0-11.22-3.65-16.6-8.27-6.11-5.25-13-11.2-24.48-11.2-.75,0-1.44.09-2.16.14Z"/><path class="cls-1" d="M451.65,428.71c-5.32,0-6.82-2.17-9.81-6.5-3.78-5.47-8.95-13-23-13-13.6,0-21.46,6.91-27.78,12.46-5.09,4.48-8.19,7-12.56,7-4.21,0-6.74-2.35-11.22-6.87-5.56-5.62-12.49-12.6-25.78-12.6-12,0-19.73,5.77-26.56,10.85-6.21,4.63-11.57,8.62-19.9,8.62-7.47,0-10.23-3-14.41-7.57-4.86-5.3-10.91-11.9-24.54-11.9S235,415.8,229,421.06c-5.08,4.44-8.76,7.65-15.32,7.65-7,0-11.22-3.65-16.6-8.27-6.11-5.25-13-11.2-24.48-11.2-11.05,0-18.5,5.67-25.07,10.68-6.2,4.72-11.55,8.8-19.71,8.8-6.84,0-9.27-2.65-13.3-7.06-5.07-5.53-11.38-12.42-26.76-12.42-15.85,0-23,7.51-28.26,13-4.19,4.39-6.41,6.49-11.15,6.49a6.14,6.14,0,0,0,0,12.29c10.2,0,15.65-5.7,20-10.29,4.71-4.93,8.78-9.19,19.38-9.19,10,0,13.38,3.72,17.7,8.43,4.51,4.92,10.12,11,22.36,11S148,435,155,429.69c5.75-4.38,10.72-8.16,17.63-8.16s11.12,3.63,16.48,8.23C195.22,435,202.17,441,213.69,441c11.17,0,17.67-5.68,23.4-10.68,5.4-4.72,10.07-8.79,19-8.79,8.22,0,11.27,3.32,15.48,7.92C276.28,434.59,282.15,441,295,441c12.4,0,20.28-5.87,27.24-11.05,6.07-4.52,11.31-8.42,19.22-8.42,8.17,0,12.29,4.15,17.06,9S369,441,378.48,441c9.21,0,15.3-5.35,20.67-10.07,5.74-5,10.69-9.4,19.67-9.4,7.62,0,9.61,2.88,12.9,7.66,3.44,5,8.15,11.81,19.92,11.81a6.14,6.14,0,0,0,0-12.29Z"/></svg>