<?xml version="1.0" standalone="no"?>
<!DOCTYPE svg PUBLIC "-//W3C//DTD SVG 1.1//EN" "http://www.w3.org/Graphics/SVG/1.1/DTD/svg11.dtd" >
<svg xmlns="http://www.w3.org/2000/svg">
<metadata>Generated by IcoMoon</metadata>
<defs>
<font id="icomoon" horiz-adv-x="1024">
<font-face units-per-em="1024" ascent="960" descent="-64" />
<missing-glyph horiz-adv-x="1024" />
<glyph unicode="&#x20;" horiz-adv-x="512" d="" />
<glyph unicode="&#xe900;" d="M750.933 352.427c0-173.432-140.595-314.027-314.027-314.027s-314.027 140.595-314.027 314.027c0 173.432 140.595 314.027 314.027 314.027s314.027-140.595 314.027-314.027z" />
<glyph unicode="&#xe901;" d="M688.319 729.068c-3.492 0-6.987 1.335-9.653 4l-38.612 38.612c-5.332 5.332-5.332 13.974 0 19.306s13.974 5.332 19.306 0l38.612-38.612c5.332-5.332 5.332-13.974 0-19.306-2.666-2.669-6.158-4-9.653-4z" />
<glyph unicode="&#xe902;" d="M649.708 729.068c-3.492 0-6.987 1.335-9.653 4-5.332 5.332-5.332 13.974 0 19.306l38.612 38.612c5.332 5.332 13.974 5.332 19.306 0s5.332-13.974 0-19.306l-38.612-38.612c-2.666-2.669-6.161-4-9.653-4z" />
<glyph unicode="&#xe903;" d="M477.867 762.027c0-7.541-6.113-13.653-13.653-13.653s-13.653 6.113-13.653 13.653c0 7.541 6.113 13.653 13.653 13.653s13.653-6.113 13.653-13.653z" />
<glyph unicode="&#xe904;" d="M709.973 215.893c-22.586 0-40.96 18.374-40.96 40.96s18.374 40.96 40.96 40.96 40.96-18.374 40.96-40.96-18.374-40.96-40.96-40.96zM709.973 270.507c-7.533 0-13.653-6.127-13.653-13.653s6.12-13.653 13.653-13.653 13.653 6.127 13.653 13.653-6.12 13.653-13.653 13.653z" />
<glyph unicode="&#xe905;" d="M259.413 775.68c-22.586 0-40.96 18.374-40.96 40.96s18.374 40.96 40.96 40.96 40.96-18.374 40.96-40.96-18.374-40.96-40.96-40.96zM259.413 830.293c-7.533 0-13.653-6.127-13.653-13.653s6.12-13.653 13.653-13.653 13.653 6.127 13.653 13.653-6.12 13.653-13.653 13.653z" />
<glyph unicode="&#xe906;" d="M150.187 666.453h750.933v-136.533h-750.933z" />
<glyph unicode="&#xe907;" d="M901.12 516.267h-750.933c-7.547 0-13.653 6.113-13.653 13.653v136.533c0 7.54 6.106 13.653 13.653 13.653h750.933c7.547 0 13.653-6.113 13.653-13.653v-136.533c0-7.54-6.106-13.653-13.653-13.653zM163.84 543.573h723.627v109.227h-723.627z" />
<glyph unicode="&#xe908;" d="M255.901 598.187h-102.202c-17.022 0-30.819-13.797-30.819-30.819v-375.272c0-17.022 13.797-30.819 30.819-30.819h102.202c17.022 0 30.819 13.797 30.819 30.819v375.272c0 17.022-13.797 30.819-30.819 30.819zM204.8 202.24c-15.080 0-27.307 12.227-27.307 27.307s12.227 27.307 27.307 27.307 27.307-12.227 27.307-27.307-12.227-27.307-27.307-27.307z" />
<glyph unicode="&#xe909;" d="M255.908 147.627h-102.216c-24.518 0-44.465 19.954-44.465 44.472v375.269c0 24.518 19.948 44.472 44.465 44.472h102.212c24.521 0 44.469-19.954 44.469-44.472v-375.265c0-24.521-19.948-44.476-44.465-44.476zM153.692 584.533c-9.465 0-17.159-7.7-17.159-17.166v-375.265c0-9.465 7.694-17.166 17.159-17.166h102.212c9.465 0 17.159 7.7 17.159 17.166v375.265c0 9.465-7.694 17.166-17.159 17.166zM204.8 188.587c-22.586 0-40.96 18.374-40.96 40.96s18.374 40.96 40.96 40.96 40.96-18.374 40.96-40.96-18.374-40.96-40.96-40.96zM204.8 243.2c-7.533 0-13.653-6.127-13.653-13.653s6.12-13.653 13.653-13.653 13.653 6.127 13.653 13.653-6.12 13.653-13.653 13.653z" />
<glyph unicode="&#xe90a;" d="M245.76 543.573c0-7.541-6.113-13.653-13.653-13.653s-13.653 6.113-13.653 13.653c0 7.541 6.113 13.653 13.653 13.653s13.653-6.113 13.653-13.653z" />
<glyph unicode="&#xe90b;" d="M191.147 543.573c0-7.541-6.113-13.653-13.653-13.653s-13.653 6.113-13.653 13.653c0 7.541 6.113 13.653 13.653 13.653s13.653-6.113 13.653-13.653z" />
<glyph unicode="&#xe90c;" d="M436.907 366.080h-68.267c-7.547 0-13.653 6.113-13.653 13.653v54.613c0 7.54 6.106 13.653 13.653 13.653h68.267c7.547 0 13.653-6.113 13.653-13.653v-54.613c0-7.54-6.106-13.653-13.653-13.653zM382.293 393.387h40.96v27.307h-40.96z" />
<glyph unicode="&#xe90d;" d="M436.907 311.467h-68.267c-7.547 0-13.653 6.113-13.653 13.653s6.106 13.653 13.653 13.653h54.613v40.96c0 7.54 6.106 13.653 13.653 13.653s13.653-6.113 13.653-13.653v-54.613c0-7.54-6.106-13.653-13.653-13.653z" />
<glyph unicode="&#xe90e;" d="M559.787 311.467h-68.267c-7.547 0-13.653 6.113-13.653 13.653v109.227c0 7.54 6.106 13.653 13.653 13.653h68.267c7.547 0 13.653-6.113 13.653-13.653v-109.227c0-7.54-6.106-13.653-13.653-13.653zM505.173 338.773h40.96v81.92h-40.96z" />
<glyph unicode="&#xe90f;" d="M614.4 434.347h-13.653c-7.54 0-13.653 6.113-13.653 13.653v13.653c0 7.54 6.113 13.653 13.653 13.653h13.653c7.54 0 13.653-6.113 13.653-13.653v-13.653c0-7.54-6.113-13.653-13.653-13.653z" />
<glyph unicode="&#xe910;" d="M805.547 611.84h-136.533c-7.547 0-13.653 6.113-13.653 13.653s6.106 13.653 13.653 13.653h136.533c7.547 0 13.653-6.113 13.653-13.653s-6.106-13.653-13.653-13.653z" />
<glyph unicode="&#xe911;" d="M853.333 488.96c0-173.432-140.595-314.027-314.027-314.027s-314.027 140.595-314.027 314.027c0 173.432 140.595 314.027 314.027 314.027s314.027-140.595 314.027-314.027z" />
<glyph unicode="&#xe912;" d="M634.88 762.027c-22.586 0-40.96 18.374-40.96 40.96s18.374 40.96 40.96 40.96 40.96-18.374 40.96-40.96-18.374-40.96-40.96-40.96zM634.88 816.64c-7.526 0-13.653-6.12-13.653-13.653s6.127-13.653 13.653-13.653 13.653 6.12 13.653 13.653-6.127 13.653-13.653 13.653z" />
<glyph unicode="&#xe913;" d="M839.68 325.12c0-7.541-6.113-13.653-13.653-13.653s-13.653 6.113-13.653 13.653c0 7.541 6.113 13.653 13.653 13.653s13.653-6.113 13.653-13.653z" />
<glyph unicode="&#xe914;" d="M443.733 843.947v-750.933h-286.72v750.933z" />
<glyph unicode="&#xe915;" d="M628.053 52.053c-26.392 0-47.787 21.395-47.787 47.787v593.92h95.573v-593.92c0-26.392-21.395-47.787-47.787-47.787z" />
<glyph unicode="&#xe916;" d="M628.053 38.4c-33.881 0-61.44 27.559-61.44 61.44v593.92c0 7.547 6.113 13.653 13.653 13.653h95.573c7.54 0 13.653-6.106 13.653-13.653v-593.92c0-33.881-27.559-61.44-61.44-61.44zM593.92 680.107v-580.267c0-18.828 15.312-34.133 34.133-34.133s34.133 15.305 34.133 34.133v580.267z" />
<glyph unicode="&#xe917;" d="M157.013 93.013v750.933z" />
<glyph unicode="&#xe918;" d="M157.013 79.36c-7.54 0-13.653 6.106-13.653 13.653v750.933c0 7.547 6.113 13.653 13.653 13.653s13.653-6.106 13.653-13.653v-750.933c0-7.547-6.113-13.653-13.653-13.653z" />
<glyph unicode="&#xe919;" d="M443.733 843.947v-750.933z" />
<glyph unicode="&#xe91a;" d="M443.733 79.36c-7.54 0-13.653 6.106-13.653 13.653v750.933c0 7.547 6.113 13.653 13.653 13.653s13.653-6.106 13.653-13.653v-750.933c0-7.547-6.113-13.653-13.653-13.653z" />
<glyph unicode="&#xe91b;" d="M702.631 639.147h-163.325l-163.84 40.96v-232.107l163.84 40.96h163.325c7.823 0 14.169 6.342 14.169 14.169v121.849c0 7.827-6.342 14.169-14.169 14.169z" />
<glyph unicode="&#xe91c;" d="M375.467 434.347c-3.014 0-5.98 1-8.4 2.895-3.314 2.584-5.253 6.56-5.253 10.759v232.107c0 4.198 1.939 8.175 5.253 10.759 3.308 2.587 7.653 3.519 11.715 2.481l162.205-40.547h161.645c15.34 0 27.819-12.479 27.819-27.825v-121.839c0-15.346-12.479-27.825-27.819-27.825h-161.645l-162.205-40.547c-1.096-0.283-2.208-0.416-3.314-0.416zM389.12 662.613v-197.12l146.872 36.707c1.085 0.28 2.202 0.413 3.314 0.413h163.328l0.512 122.361-0.512 0.519h-163.328c-1.113 0-2.225 0.133-3.314 0.413z" />
<glyph unicode="&#xe91d;" d="M539.307 570.88c-7.54 0-13.653 6.106-13.653 13.653v54.613c0 7.547 6.113 13.653 13.653 13.653s13.653-6.106 13.653-13.653v-54.613c0-7.547-6.113-13.653-13.653-13.653z" />
<glyph unicode="&#xe91e;" d="M430.080 461.653c-7.54 0-13.653 6.106-13.653 13.653v150.187c0 7.547 6.113 13.653 13.653 13.653s13.653-6.106 13.653-13.653v-150.187c0-7.547-6.113-13.653-13.653-13.653z" />
<glyph unicode="&#xe91f;" d="M361.813 297.813l-27.307 40.96 40.96 27.307-27.307 27.307 27.307 54.613z" />
<glyph unicode="&#xe920;" d="M361.827 284.16c-4.413 0-8.742 2.133-11.373 6.079l-27.307 40.96c-4.181 6.281-2.488 14.746 3.785 18.934l27.098 18.067-15.527 15.534c-4.154 4.161-5.188 10.506-2.56 15.759l27.307 54.613c3.372 6.735 11.554 9.455 18.319 6.106 6.748-3.372 9.479-11.575 6.106-18.319l-22.907-45.814 20.347-20.347c2.895-2.895 4.335-6.932 3.932-11.001s-2.608-7.748-6.014-10.015l-29.6-19.732 19.732-29.6c4.181-6.281 2.488-14.746-3.785-18.934-2.321-1.543-4.953-2.29-7.554-2.29z" />
<glyph unicode="&#xe921;" d="M375.467 762.027l-27.307-27.307 27.307-54.613z" />
<glyph unicode="&#xe922;" d="M375.48 666.453c-5.014 0-9.834 2.761-12.227 7.547l-27.307 54.613c-2.628 5.253-1.594 11.599 2.56 15.759l27.307 27.307c5.332 5.332 13.974 5.332 19.306 0s5.332-13.974 0-19.306l-20.347-20.347 22.907-45.814c3.372-6.748 0.642-14.947-6.106-18.319-1.959-0.973-4.045-1.44-6.093-1.44z" />
<glyph unicode="&#xe923;" d="M225.28 789.333v-136.533z" />
<glyph unicode="&#xe924;" d="M225.28 639.147c-7.54 0-13.653 6.106-13.653 13.653v136.533c0 7.547 6.113 13.653 13.653 13.653s13.653-6.106 13.653-13.653v-136.533c0-7.547-6.113-13.653-13.653-13.653z" />
<glyph unicode="&#xe925;" d="M225.28 516.267c-7.54 0-13.653 6.106-13.653 13.653v81.92c0 7.547 6.113 13.653 13.653 13.653s13.653-6.106 13.653-13.653v-81.92c0-7.547-6.113-13.653-13.653-13.653z" />
<glyph unicode="&#xe926;" d="M293.547 461.653c-7.54 0-13.653 6.106-13.653 13.653v109.227c0 7.547 6.113 13.653 13.653 13.653s13.653-6.106 13.653-13.653v-109.227c0-7.547-6.113-13.653-13.653-13.653z" />
<glyph unicode="&#xe927;" d="M293.547 202.24c-7.54 0-13.653 6.106-13.653 13.653v54.613c0 7.547 6.113 13.653 13.653 13.653s13.653-6.106 13.653-13.653v-54.613c0-7.547-6.113-13.653-13.653-13.653z" />
<glyph unicode="&#xe928;" d="M293.547 106.667c-7.54 0-13.653 6.106-13.653 13.653v54.613c0 7.547 6.113 13.653 13.653 13.653s13.653-6.106 13.653-13.653v-54.613c0-7.547-6.113-13.653-13.653-13.653z" />
<glyph unicode="&#xe929;" d="M375.467 147.627c-7.54 0-13.653 6.106-13.653 13.653v81.92c0 7.547 6.113 13.653 13.653 13.653s13.653-6.106 13.653-13.653v-81.92c0-7.547-6.113-13.653-13.653-13.653z" />
<glyph unicode="&#xe92a;" d="M197.973 297.813c-7.54 0-13.653 6.106-13.653 13.653v68.267c0 7.547 6.113 13.653 13.653 13.653s13.653-6.106 13.653-13.653v-68.267c0-7.547-6.113-13.653-13.653-13.653z" />
<glyph unicode="&#xe92b;" d="M197.973 202.24c-7.54 0-13.653 6.106-13.653 13.653v54.613c0 7.547 6.113 13.653 13.653 13.653s13.653-6.106 13.653-13.653v-54.613c0-7.547-6.113-13.653-13.653-13.653z" />
<glyph unicode="&#xe92c;" d="M826.027 625.493h-54.613c-7.54 0-13.653 6.106-13.653 13.653s6.113 13.653 13.653 13.653h54.613c7.54 0 13.653-6.106 13.653-13.653s-6.113-13.653-13.653-13.653z" />
<glyph unicode="&#xe92d;" d="M866.987 584.533h-68.267c-7.54 0-13.653 6.106-13.653 13.653s6.113 13.653 13.653 13.653h68.267c7.54 0 13.653-6.106 13.653-13.653s-6.113-13.653-13.653-13.653z" />
<glyph unicode="&#xe92e;" d="M866.987 359.253c0-173.432-140.595-314.027-314.027-314.027s-314.027 140.595-314.027 314.027c0 173.432 140.595 314.027 314.027 314.027s314.027-140.595 314.027-314.027z" />
<glyph unicode="&#xe92f;" d="M299.199 517.441c-3.492 0-6.987 1.335-9.653 4l-38.612 38.612c-5.332 5.332-5.332 13.974 0 19.306s13.974 5.332 19.306 0l38.612-38.612c5.332-5.332 5.332-13.974 0-19.306-2.666-2.669-6.158-4-9.653-4z" />
<glyph unicode="&#xe930;" d="M260.588 517.441c-3.492 0-6.987 1.335-9.653 4-5.332 5.332-5.332 13.974 0 19.306l38.612 38.612c5.332 5.332 13.974 5.332 19.306 0s5.332-13.974 0-19.306l-38.612-38.612c-2.666-2.669-6.161-4-9.653-4z" />
<glyph unicode="&#xe931;" d="M777.066 763.201c-3.492 0-6.987 1.335-9.653 4l-38.612 38.612c-5.332 5.332-5.332 13.974 0 19.306s13.974 5.332 19.306 0l38.612-38.612c5.332-5.332 5.332-13.974 0-19.306-2.666-2.669-6.158-4-9.653-4z" />
<glyph unicode="&#xe932;" d="M738.454 763.201c-3.492 0-6.987 1.335-9.653 4-5.332 5.332-5.332 13.974 0 19.306l38.612 38.612c5.332 5.332 13.974 5.332 19.306 0s5.332-13.974 0-19.306l-38.612-38.612c-2.666-2.669-6.161-4-9.653-4z" />
<glyph unicode="&#xe933;" d="M866.987 659.627c0-7.541-6.113-13.653-13.653-13.653s-13.653 6.113-13.653 13.653c0 7.541 6.113 13.653 13.653 13.653s13.653-6.113 13.653-13.653z" />
<glyph unicode="&#xe934;" d="M716.8 509.44c-22.586 0-40.96 18.374-40.96 40.96s18.374 40.96 40.96 40.96 40.96-18.374 40.96-40.96-18.374-40.96-40.96-40.96zM716.8 564.053c-7.533 0-13.653-6.127-13.653-13.653s6.12-13.653 13.653-13.653 13.653 6.127 13.653 13.653-6.12 13.653-13.653 13.653z" />
<glyph unicode="&#xe935;" d="M662.187 331.947c-3.492 0-6.987 1.335-9.653 4l-40.96 40.96c-5.332 5.332-5.332 13.974 0 19.306l40.96 40.96c5.332 5.332 13.974 5.332 19.306 0s5.332-13.974 0-19.306l-31.307-31.307 31.307-31.307c5.332-5.332 5.332-13.974 0-19.306-2.666-2.666-6.161-4-9.653-4z" />
<glyph unicode="&#xe936;" d="M589.988 727.893h-210.592c-17.251 0-31.239 13.984-31.239 31.239v77.988h273.067v-77.988c0.003-17.254-13.981-31.239-31.235-31.239z" />
<glyph unicode="&#xe937;" d="M589.988 714.24h-210.586c-24.757 0-44.896 20.139-44.896 44.892v77.988c0 7.54 6.113 13.653 13.653 13.653h273.067c7.547 0 13.653-6.113 13.653-13.653v-77.988c0-24.753-20.132-44.892-44.892-44.892zM361.813 823.467v-64.335c0-9.701 7.888-17.585 17.585-17.585h210.586c9.694 0 17.585 7.888 17.585 17.585v64.335z" />
<glyph unicode="&#xe938;" d="M484.693 782.507c-7.547 0-13.653 6.113-13.653 13.653v27.307c0 7.54 6.106 13.653 13.653 13.653s13.653-6.113 13.653-13.653v-27.307c0-7.54-6.106-13.653-13.653-13.653z" />
<glyph unicode="&#xe939;" d="M552.96 676.925v-590.739l-136.533 27.307v614.4h136.533z" />
<glyph unicode="&#xe93a;" d="M552.96 72.533c-0.894 0-1.785 0.085-2.679 0.266l-136.533 27.307c-6.38 1.273-10.974 6.881-10.974 13.387v614.4c0 7.54 6.113 13.653 13.653 13.653h136.533c7.547 0 13.653-6.113 13.653-13.653s-6.106-13.653-13.653-13.653h-122.88v-589.554l109.227-21.845v574.085c0 7.54 6.106 13.653 13.653 13.653s13.653-6.113 13.653-13.653v-590.739c0-4.093-1.84-7.967-5.001-10.561-2.454-2.021-5.519-3.092-8.653-3.092z" />
<glyph unicode="&#xe93b;" d="M552.974 127.147c-0.894 0-1.785 0.085-2.693 0.266l-136.533 27.307c-7.393 1.481-12.186 8.673-10.708 16.067 1.475 7.386 8.653 12.186 16.067 10.708l136.533-27.307c7.386-1.481 12.186-8.673 10.708-16.067-1.294-6.489-7.001-10.974-13.373-10.974z" />
<glyph unicode="&#xe93c;" d="M552.974 181.76c-0.894 0-1.785 0.085-2.693 0.266l-136.533 27.307c-7.393 1.481-12.186 8.673-10.708 16.067 1.475 7.393 8.653 12.158 16.067 10.708l136.533-27.307c7.386-1.481 12.186-8.673 10.708-16.067-1.294-6.489-7.001-10.974-13.373-10.974z" />
<glyph unicode="&#xe93d;" d="M552.974 236.373c-0.894 0-1.785 0.085-2.693 0.266l-136.533 27.307c-7.393 1.481-12.186 8.673-10.708 16.067 1.475 7.386 8.653 12.186 16.067 10.708l136.533-27.307c7.386-1.481 12.186-8.673 10.708-16.067-1.294-6.489-7.001-10.974-13.373-10.974z" />
<glyph unicode="&#xe93e;" d="M552.974 290.987c-0.894 0-1.785 0.085-2.693 0.266l-136.533 27.307c-7.393 1.481-12.186 8.673-10.708 16.067 1.475 7.393 8.653 12.158 16.067 10.708l136.533-27.307c7.386-1.481 12.186-8.673 10.708-16.067-1.294-6.489-7.001-10.974-13.373-10.974z" />
<glyph unicode="&#xe93f;" d="M552.974 345.6c-0.894 0-1.785 0.085-2.693 0.266l-136.533 27.307c-7.393 1.481-12.186 8.673-10.708 16.067 1.475 7.386 8.653 12.192 16.067 10.708l136.533-27.307c7.386-1.481 12.186-8.673 10.708-16.067-1.294-6.489-7.001-10.974-13.373-10.974z" />
<glyph unicode="&#xe940;" d="M552.974 400.213c-0.894 0-1.785 0.085-2.693 0.266l-136.533 27.307c-7.393 1.481-12.186 8.673-10.708 16.067 1.475 7.393 8.653 12.165 16.067 10.708l136.533-27.307c7.386-1.481 12.186-8.673 10.708-16.067-1.294-6.489-7.001-10.974-13.373-10.974z" />
<glyph unicode="&#xe941;" d="M484.693 250.027c-113.34 0-327.68 17.121-327.68 81.92 0 62.14 194.673 76.995 254.341 80.067 7.448 0.427 13.947-5.393 14.333-12.933 0.386-7.526-5.4-13.947-12.933-14.333-162.7-8.38-228.434-40.728-228.434-52.801 0-11.114 78.401-54.613 300.373-54.613s300.373 43.5 300.373 54.613c0 8.513-36.253 31.782-144.002 45.452-7.479 0.952-12.773 7.786-11.827 15.268 0.959 7.479 7.759 12.687 15.268 11.827 76.575-9.728 167.868-30.201 167.868-72.547 0-64.799-214.347-81.92-327.68-81.92z" />
<glyph unicode="&#xe942;" d="M484.693 536.747c-7.547 0-13.653 6.113-13.653 13.653v163.84c0 7.54 6.106 13.653 13.653 13.653s13.653-6.113 13.653-13.653v-163.84c0-7.54-6.106-13.653-13.653-13.653z" />
<glyph unicode="&#xe943;" d="M846.507 536.747c0-173.432-140.595-314.027-314.027-314.027s-314.027 140.595-314.027 314.027c0 173.432 140.595 314.027 314.027 314.027s314.027-140.595 314.027-314.027z" />
<glyph unicode="&#xe944;" d="M292.372 435.521c-3.492 0-6.987 1.335-9.653 4l-38.612 38.612c-5.332 5.332-5.332 13.974 0 19.306s13.974 5.332 19.306 0l38.612-38.612c5.332-5.332 5.332-13.974 0-19.306-2.666-2.669-6.158-4-9.653-4z" />
<glyph unicode="&#xe945;" d="M253.761 435.521c-3.492 0-6.987 1.335-9.653 4-5.332 5.332-5.332 13.974 0 19.306l38.612 38.612c5.332 5.332 13.974 5.332 19.306 0s5.332-13.974 0-19.306l-38.612-38.612c-2.666-2.669-6.161-4-9.653-4z" />
<glyph unicode="&#xe946;" d="M764.587 441.173c0-7.541-6.113-13.653-13.653-13.653s-13.653 6.113-13.653 13.653c0 7.541 6.113 13.653 13.653 13.653s13.653-6.113 13.653-13.653z" />
<glyph unicode="&#xe947;" d="M204.8 741.547c0-7.541-6.113-13.653-13.653-13.653s-13.653 6.113-13.653 13.653c0 7.541 6.113 13.653 13.653 13.653s13.653-6.113 13.653-13.653z" />
<glyph unicode="&#xe948;" d="M737.28 591.36c-22.586 0-40.96 18.374-40.96 40.96s18.374 40.96 40.96 40.96 40.96-18.374 40.96-40.96-18.374-40.96-40.96-40.96zM737.28 645.973c-7.533 0-13.653-6.127-13.653-13.653s6.12-13.653 13.653-13.653 13.653 6.127 13.653 13.653-6.12 13.653-13.653 13.653z" />
<glyph unicode="&#xe949;" d="M341.333 304.64c-22.586 0-40.96 18.374-40.96 40.96s18.374 40.96 40.96 40.96 40.96-18.374 40.96-40.96-18.374-40.96-40.96-40.96zM341.333 359.253c-7.533 0-13.653-6.127-13.653-13.653s6.12-13.653 13.653-13.653 13.653 6.127 13.653 13.653-6.12 13.653-13.653 13.653z" />
<glyph unicode="&#xe94a;" d="M641.707 850.773h-218.453c-52.784 0-95.573-42.79-95.573-95.573h150.187v-628.053l54.613-81.92 54.613 81.92v628.053h150.187c0 52.784-42.79 95.573-95.573 95.573z" />
<glyph unicode="&#xe94b;" d="M532.48 31.573c-4.56 0-8.827 2.28-11.36 6.079l-54.613 81.92c-1.495 2.239-2.294 4.881-2.294 7.574v614.4h-136.533c-7.547 0-13.653 6.113-13.653 13.653 0 60.228 48.998 109.227 109.227 109.227h218.453c60.228 0 109.227-48.998 109.227-109.227 0-7.54-6.106-13.653-13.653-13.653h-136.533v-614.4c0-2.693-0.799-5.332-2.294-7.574l-54.613-81.92c-2.533-3.799-6.799-6.079-11.36-6.079zM491.52 131.28l40.96-61.44 40.96 61.44v623.92c0 7.54 6.106 13.653 13.653 13.653h135.4c-6.519 38.694-40.267 68.267-80.787 68.267h-218.453c-40.52 0-74.267-29.573-80.787-68.267h135.4c7.547 0 13.653-6.113 13.653-13.653z" />
<glyph unicode="&#xe94c;" d="M587.093 741.547h-40.96c-7.547 0-13.653 6.113-13.653 13.653s6.106 13.653 13.653 13.653h40.96c7.547 0 13.653-6.113 13.653-13.653s-6.106-13.653-13.653-13.653z" />
<glyph unicode="&#xe94d;" d="M450.546 509.44c-7.028 0-13.001 5.393-13.585 12.52-0.628 7.513 4.946 14.114 12.465 14.739l163.84 13.653c7.588 0.707 14.121-4.966 14.732-12.472 0.628-7.513-4.946-14.114-12.465-14.739l-163.84-13.653c-0.386-0.034-0.775-0.048-1.147-0.048z" />
<glyph unicode="&#xe94e;" d="M450.546 454.827c-7.028 0-13.001 5.393-13.585 12.52-0.628 7.513 4.946 14.114 12.465 14.739l163.84 13.653c7.588 0.614 14.121-4.966 14.732-12.472 0.628-7.513-4.946-14.114-12.465-14.739l-163.84-13.653c-0.386-0.034-0.775-0.048-1.147-0.048z" />
<glyph unicode="&#xe94f;" d="M450.546 400.213c-7.028 0-13.001 5.393-13.585 12.52-0.628 7.513 4.946 14.114 12.465 14.739l163.84 13.653c7.588 0.652 14.121-4.966 14.732-12.472 0.628-7.513-4.946-14.114-12.465-14.739l-163.84-13.653c-0.386-0.034-0.775-0.048-1.147-0.048z" />
<glyph unicode="&#xe950;" d="M450.546 345.6c-7.028 0-13.001 5.393-13.585 12.52-0.628 7.513 4.946 14.114 12.465 14.739l163.84 13.653c7.588 0.693 14.121-4.966 14.732-12.472 0.628-7.513-4.946-14.114-12.465-14.739l-163.84-13.653c-0.386-0.034-0.775-0.048-1.147-0.048z" />
<glyph unicode="&#xe951;" d="M450.546 290.987c-7.028 0-13.001 5.393-13.585 12.52-0.628 7.513 4.946 14.114 12.465 14.739l163.84 13.653c7.588 0.734 14.121-4.966 14.732-12.472 0.628-7.513-4.946-14.114-12.465-14.739l-163.84-13.653c-0.386-0.034-0.775-0.048-1.147-0.048z" />
<glyph unicode="&#xe952;" d="M450.546 236.373c-7.028 0-13.001 5.393-13.585 12.52-0.628 7.513 4.946 14.114 12.465 14.739l163.84 13.653c7.588 0.642 14.121-4.966 14.732-12.472 0.628-7.513-4.946-14.114-12.465-14.739l-163.84-13.653c-0.386-0.034-0.775-0.048-1.147-0.048z" />
<glyph unicode="&#xe953;" d="M450.546 181.76c-7.028 0-13.001 5.393-13.585 12.52-0.628 7.513 4.946 14.114 12.465 14.739l163.84 13.653c7.588 0.672 14.121-4.966 14.732-12.472 0.628-7.513-4.946-14.114-12.465-14.739l-163.84-13.653c-0.386-0.034-0.775-0.048-1.147-0.048z" />
<glyph unicode="&#xe954;" d="M826.027 536.75c0-173.432-140.595-314.027-314.027-314.027s-314.027 140.595-314.027 314.027c0 173.432 140.595 314.027 314.027 314.027s314.027-140.595 314.027-314.027z" />
<glyph unicode="&#xe955;" d="M271.892 435.524c-3.492 0-6.987 1.335-9.653 4l-38.612 38.612c-5.332 5.332-5.332 13.974 0 19.306s13.974 5.332 19.306 0l38.612-38.612c5.332-5.332 5.332-13.974 0-19.306-2.666-2.666-6.158-4-9.653-4z" />
<glyph unicode="&#xe956;" d="M233.281 435.524c-3.492 0-6.987 1.335-9.653 4-5.332 5.332-5.332 13.974 0 19.306l38.612 38.612c5.332 5.332 13.974 5.332 19.306 0s5.332-13.974 0-19.306l-38.612-38.612c-2.666-2.666-6.161-4-9.653-4z" />
<glyph unicode="&#xe957;" d="M744.107 441.177c0-7.541-6.113-13.653-13.653-13.653s-13.653 6.113-13.653 13.653c0 7.541 6.113 13.653 13.653 13.653s13.653-6.113 13.653-13.653z" />
<glyph unicode="&#xe958;" d="M716.8 591.363c-22.586 0-40.96 18.374-40.96 40.96s18.374 40.96 40.96 40.96 40.96-18.374 40.96-40.96-18.374-40.96-40.96-40.96zM716.8 645.977c-7.533 0-13.653-6.127-13.653-13.653s6.12-13.653 13.653-13.653 13.653 6.127 13.653 13.653-6.12 13.653-13.653 13.653z" />
<glyph unicode="&#xe959;" d="M279.893 236.377c-22.586 0-40.96 18.374-40.96 40.96s18.374 40.96 40.96 40.96 40.96-18.374 40.96-40.96-18.374-40.96-40.96-40.96zM279.893 290.99c-7.533 0-13.653-6.127-13.653-13.653s6.12-13.653 13.653-13.653 13.653 6.127 13.653 13.653-6.12 13.653-13.653 13.653z" />
<glyph unicode="&#xe95a;" d="M621.227 850.777h-216.992c-13.602 0-26.211-9.295-28.396-22.723-2.782-17.108 10.349-31.891 26.931-31.891h27.307v-559.787l54.613-191.147v464.213c0 15.080 12.227 27.307 27.307 27.307s27.307-12.227 27.307-27.307v-464.213l54.613 191.147v559.787h25.846c13.602 0 26.211 9.295 28.396 22.723 2.785 17.108-10.349 31.891-26.931 31.891z" />
<glyph unicode="&#xe95b;" d="M539.32 31.577c-0.628 0-1.266 0.041-1.908 0.133-6.748 0.939-11.759 6.714-11.759 13.52v464.213c0 7.526-6.12 13.653-13.653 13.653s-13.653-6.127-13.653-13.653v-464.213c0-6.806-5.014-12.582-11.759-13.52-6.786-0.98-13.158 3.219-15.025 9.766l-54.613 191.147c-0.348 1.219-0.519 2.488-0.519 3.755v546.133h-13.653c-12.039 0-23.412 5.26-31.215 14.438-7.799 9.168-11.148 21.306-9.199 33.3 3.174 19.487 21.187 34.181 41.882 34.181h216.982c12.039 0 23.412-5.26 31.215-14.435s11.148-21.306 9.199-33.307c-3.174-19.487-21.187-34.181-41.882-34.181h-12.186v-546.133c0-1.266-0.174-2.533-0.519-3.755l-54.613-191.147c-1.693-5.922-7.107-9.895-13.121-9.895zM512 550.403c22.586 0 40.96-18.374 40.96-40.96v-366.725l27.307 95.573v557.872c0 7.54 6.106 13.653 13.653 13.653h25.839c7.345 0 13.892 4.946 14.92 11.261 0.679 4.14-0.399 8.127-3.041 11.226-2.601 3.065-6.4 4.82-10.414 4.82h-216.986c-7.345 0-13.892-4.946-14.92-11.261-0.679-4.14 0.399-8.127 3.041-11.226 2.601-3.065 6.4-4.82 10.414-4.82h27.307c7.547 0 13.653-6.113 13.653-13.653v-557.872l27.307-95.573v366.725c0 22.586 18.374 40.96 40.96 40.96z" />
<glyph unicode="&#xe95c;" d="M512 782.51h-81.92c-7.547 0-13.653 6.113-13.653 13.653s6.106 13.653 13.653 13.653h81.92c7.547 0 13.653-6.113 13.653-13.653s-6.106-13.653-13.653-13.653z" />
<glyph unicode="&#xe95d;" d="M430.080 550.403h-27.307c-7.547 0-13.653 6.113-13.653 13.653s6.106 13.653 13.653 13.653h27.307c7.547 0 13.653-6.113 13.653-13.653s-6.106-13.653-13.653-13.653z" />
<glyph unicode="&#xe95e;" d="M430.080 482.137h-27.307c-7.547 0-13.653 6.113-13.653 13.653s6.106 13.653 13.653 13.653h27.307c7.547 0 13.653-6.113 13.653-13.653s-6.106-13.653-13.653-13.653z" />
<glyph unicode="&#xe95f;" d="M430.080 413.87h-27.307c-7.547 0-13.653 6.113-13.653 13.653s6.106 13.653 13.653 13.653h27.307c7.547 0 13.653-6.113 13.653-13.653s-6.106-13.653-13.653-13.653z" />
<glyph unicode="&#xe960;" d="M430.080 345.603h-27.307c-7.547 0-13.653 6.113-13.653 13.653s6.106 13.653 13.653 13.653h27.307c7.547 0 13.653-6.113 13.653-13.653s-6.106-13.653-13.653-13.653z" />
<glyph unicode="&#xe961;" d="M430.080 277.337h-27.307c-7.547 0-13.653 6.113-13.653 13.653s6.106 13.653 13.653 13.653h27.307c7.547 0 13.653-6.113 13.653-13.653s-6.106-13.653-13.653-13.653z" />
<glyph unicode="&#xe962;" d="M621.227 550.403h-27.307c-7.547 0-13.653 6.113-13.653 13.653s6.106 13.653 13.653 13.653h27.307c7.547 0 13.653-6.113 13.653-13.653s-6.106-13.653-13.653-13.653z" />
<glyph unicode="&#xe963;" d="M621.227 482.137h-27.307c-7.547 0-13.653 6.113-13.653 13.653s6.106 13.653 13.653 13.653h27.307c7.547 0 13.653-6.113 13.653-13.653s-6.106-13.653-13.653-13.653z" />
<glyph unicode="&#xe964;" d="M621.227 413.87h-27.307c-7.547 0-13.653 6.113-13.653 13.653s6.106 13.653 13.653 13.653h27.307c7.547 0 13.653-6.113 13.653-13.653s-6.106-13.653-13.653-13.653z" />
<glyph unicode="&#xe965;" d="M621.227 345.603h-27.307c-7.547 0-13.653 6.113-13.653 13.653s6.106 13.653 13.653 13.653h27.307c7.547 0 13.653-6.113 13.653-13.653s-6.106-13.653-13.653-13.653z" />
<glyph unicode="&#xe966;" d="M621.227 277.337h-27.307c-7.547 0-13.653 6.113-13.653 13.653s6.106 13.653 13.653 13.653h27.307c7.547 0 13.653-6.113 13.653-13.653s-6.106-13.653-13.653-13.653z" />
<glyph unicode="&#xe967;" d="M799.089 485.741c0-173.432-140.595-314.027-314.027-314.027s-314.027 140.595-314.027 314.027c0 173.432 140.595 314.027 314.027 314.027s314.027-140.595 314.027-314.027z" />
<glyph unicode="&#xe968;" d="M689.862 458.435v-354.987h109.227v354.987c0 30.164-24.453 54.613-54.613 54.613s-54.613-24.45-54.613-54.613z" />
<glyph unicode="&#xe969;" d="M799.089 89.795h-109.227c-7.54 0-13.653 6.106-13.653 13.653v354.987c0 37.639 30.628 68.267 68.267 68.267s68.267-30.628 68.267-68.267v-354.987c0-7.543-6.113-13.653-13.653-13.653zM703.515 117.101h81.92v341.333c0 22.586-18.374 40.96-40.96 40.96s-40.96-18.374-40.96-40.96z" />
<glyph unicode="&#xe96a;" d="M799.089 513.048v-409.6h109.227v409.6c0 30.164-24.453 54.613-54.613 54.613s-54.613-24.45-54.613-54.613z" />
<glyph unicode="&#xe96b;" d="M908.315 89.795h-109.227c-7.54 0-13.653 6.106-13.653 13.653v409.6c0 37.639 30.628 68.267 68.267 68.267s68.267-30.628 68.267-68.267v-409.6c0-7.543-6.113-13.653-13.653-13.653zM812.742 117.101h81.92v395.947c0 22.586-18.374 40.96-40.96 40.96s-40.96-18.374-40.96-40.96z" />
<glyph unicode="&#xe96c;" d="M791.091 684.889c-3.492 0-6.987 1.335-9.653 4l-38.612 38.612c-5.332 5.332-5.332 13.974 0 19.306s13.974 5.332 19.306 0l38.612-38.612c5.332-5.332 5.332-13.974 0-19.306-2.669-2.666-6.161-4-9.653-4z" />
<glyph unicode="&#xe96d;" d="M752.476 684.889c-3.492 0-6.987 1.335-9.653 4-5.332 5.332-5.332 13.974 0 19.306l38.612 38.612c5.332 5.332 13.974 5.332 19.306 0s5.332-13.974 0-19.306l-38.612-38.612c-2.666-2.666-6.161-4-9.653-4z" />
<glyph unicode="&#xe96e;" d="M203.998 480.089c-3.492 0-6.987 1.335-9.653 4l-38.612 38.612c-5.332 5.335-5.332 13.974 0 19.306s13.974 5.332 19.306 0l38.612-38.615c5.335-5.332 5.335-13.974 0-19.306-2.669-2.662-6.161-3.997-9.653-3.997z" />
<glyph unicode="&#xe96f;" d="M165.383 480.089c-3.492 0-6.987 1.335-9.653 4-5.332 5.332-5.332 13.974 0 19.306l38.612 38.615c5.332 5.332 13.974 5.332 19.306 0 5.335-5.332 5.335-13.974 0-19.306l-38.612-38.615c-2.666-2.666-6.161-4-9.653-4z" />
<glyph unicode="&#xe970;" d="M150.555 690.541c-26.348 0-47.787 21.439-47.787 47.787s21.439 47.787 47.787 47.787 47.787-21.439 47.787-47.787-21.439-47.787-47.787-47.787zM150.555 758.808c-11.295 0-20.48-9.185-20.48-20.48s9.185-20.48 20.48-20.48 20.48 9.185 20.48 20.48-9.185 20.48-20.48 20.48z" />
<glyph unicode="&#xe971;" d="M336.94 791.607c0-8.061-6.535-14.595-14.595-14.595s-14.595 6.535-14.595 14.595c0 8.061 6.535 14.595 14.595 14.595s14.595-6.535 14.595-14.595z" />
<glyph unicode="&#xe972;" d="M417.42 348.075l92.59-47.172c19.115-9.738 28.279-31.956 21.589-52.337l-43.803-133.465c-6.117 15.5-8.905 32.116-8.192 48.763l3.748 87.231-164.96 31.843z" />
<glyph unicode="&#xe973;" d="M487.796 101.451c-5.594 0-10.639 3.413-12.701 8.639-6.861 17.388-9.933 35.68-9.134 54.361l3.246 75.465-153.399 29.628c-5.455 1.055-9.728 5.294-10.807 10.745s1.246 11.015 5.895 14.066l99.021 65.133c4.113 2.666 9.339 2.987 13.701 0.748l92.593-47.172c25.286-12.879 37.212-41.786 28.361-68.762l-43.8-133.455c-1.792-5.468-6.82-9.226-12.575-9.4-0.137 0.003-0.27 0.003-0.403 0.003zM353.942 289.983l132-25.494c6.646-1.28 11.346-7.226 11.052-13.988l-3.147-73.175 24.774 75.493c4.625 14.094-1.601 29.187-14.807 35.919l-85.528 43.561z" />
<glyph unicode="&#xe974;" d="M564.053 549.53l-41.168 23.767c-29.505 17.036-39.615 54.764-22.579 84.272l16.94 29.344c15.080 26.122 48.483 35.072 74.602 19.988 26.122-15.080 35.072-48.483 19.988-74.602z" />
<glyph unicode="&#xe975;" d="M564.057 535.876c-2.372 0-4.734 0.628-6.827 1.826l-41.168 23.774c-17.425 10.052-29.894 26.307-35.106 45.745-5.205 19.439-2.533 39.748 7.526 57.173l16.94 29.348c18.828 32.587 60.655 43.786 93.252 24.986 15.793-9.12 27.088-23.839 31.805-41.455s2.301-36.014-6.813-51.801l-47.787-82.773c-1.812-3.133-4.792-5.427-8.294-6.359-1.157-0.304-2.348-0.464-3.529-0.464zM564.61 700.583c-3.56 0-7.141-0.468-10.667-1.413-10.568-2.826-19.401-9.598-24.866-19.081l-16.94-29.348c-6.42-11.107-8.127-24.054-4.806-36.454 3.328-12.387 11.274-22.746 22.388-29.16l29.341-16.947 40.96 70.946c11.295 19.558 4.567 44.653-14.995 55.948-6.315 3.642-13.322 5.509-20.415 5.509z" />
<glyph unicode="&#xe976;" d="M265.981 319.089l26.911-131.389-89.491 10.766c-31.338 3.768-62.891-5.062-87.716-24.559l194.898-52.183c22.449-6.011 44.838 9.854 46.609 33.027l8.823 115.439 70.728 107.165-152.532 40.841c-18.534-29.269-25.265-64.748-18.231-99.106z" />
<glyph unicode="&#xe977;" d="M320.222 106.796c-4.393 0-8.82 0.573-13.165 1.734l-194.908 52.186c-4.994 1.335-8.806 5.386-9.841 10.452-1.041 5.065 0.874 10.281 4.939 13.466 27.887 21.907 62.652 31.532 97.785 27.385l70.68-8.506-23.108 112.828c-7.735 37.748-0.608 76.506 20.067 109.158 3.202 5.041 9.301 7.468 15.066 5.881l152.532-40.841c4.239-1.133 7.673-4.239 9.233-8.332 1.553-4.106 1.048-8.707-1.372-12.373l-68.772-104.226-8.561-111.906c-1.154-15.094-8.899-28.788-21.255-37.547-8.687-6.161-18.92-9.359-29.321-9.359zM151.043 178.569l163.072-43.667c6.755-1.785 13.926-0.532 19.64 3.533 5.707 4.055 9.288 10.373 9.82 17.347l8.827 115.439c0.174 2.321 0.939 4.547 2.219 6.479l60.293 91.361-124.14 33.239c-13.001-24.719-17.060-52.934-11.421-80.466v-0.014l26.914-131.386c0.881-4.294-0.358-8.759-3.328-11.988-2.98-3.212-7.359-4.826-11.674-4.308l-89.494 10.759c-17.504 2.14-34.802-0.113-50.729-6.328z" />
<glyph unicode="&#xe978;" d="M748.616 444.658l-193.195 105.598 2.297-62.222 174.445-76.793c6.711-2.956 14.534-1.7 19.982 3.205 9.551 8.598 7.745 24.050-3.529 30.211z" />
<glyph unicode="&#xe979;" d="M739.656 396.022c-4.4 0-8.827 0.894-13.001 2.734l-174.438 76.786c-4.785 2.106-7.953 6.758-8.148 11.988l-2.294 62.225c-0.181 4.908 2.294 9.533 6.468 12.121s9.434 2.693 13.725 0.372l193.195-105.602c9.175-5.014 15.374-14.199 16.585-24.586 1.219-10.387-2.693-20.76-10.458-27.761-6.045-5.437-13.793-8.277-21.634-8.277zM571.044 497.091l166.618-73.346c1.806-0.785 3.901-0.468 5.352 0.853 1.666 1.505 1.727 3.335 1.615 4.294-0.113 0.945-0.594 2.72-2.56 3.785l-172.121 94.082z" />
<glyph unicode="&#xe97a;" d="M494.486 583.567c-30.304 16.565-68.103 9.25-90.037-17.425l-110.527-134.397c-3.557-4.325-6.752-8.875-9.711-13.551l152.532-40.841 65.556 99.331c10.561 15.998 31.116 22.054 48.66 14.329l6.758-2.973-2.297 62.222z" />
<glyph unicode="&#xe97b;" d="M436.743 363.704c-1.174 0-2.359 0.147-3.533 0.468l-152.535 40.841c-4.195 1.12-7.608 4.175-9.185 8.226-1.58 4.041-1.14 8.602 1.195 12.268 3.567 5.625 7.066 10.506 10.708 14.92l110.513 134.386c26.074 31.706 71.134 40.4 107.127 20.746l60.942-33.307c4.226-2.321 6.919-6.68 7.1-11.479l2.294-62.225c0.174-4.707-2.086-9.161-5.98-11.8-3.881-2.639-8.861-3.092-13.165-1.201l-6.755 2.973c-11.506 5.065-24.852 1.133-31.775-9.346l-65.556-99.338c-2.567-3.891-6.888-6.13-11.394-6.13zM307.057 426.209l123.713-33.12 60.133 91.119c11.701 17.708 32.321 26.361 52.439 23.159l-1.28 34.639-54.125 29.573c-24.521 13.428-55.194 7.455-72.94-14.107z" />
<glyph unicode="&#xe97c;" d="M894.662 89.795h-450.56c-7.54 0-13.653 6.106-13.653 13.653s6.113 13.653 13.653 13.653h450.56c7.54 0 13.653-6.106 13.653-13.653s-6.113-13.653-13.653-13.653z" />
<glyph unicode="&#xe97d;" d="M869.42 518.54c0-8.061-6.535-14.595-14.595-14.595s-14.595 6.535-14.595 14.595c0 8.061 6.535 14.595 14.595 14.595s14.595-6.535 14.595-14.595z" />
<glyph unicode="&#xe97e;" d="M869.42 149.9c0-8.061-6.535-14.595-14.595-14.595s-14.595 6.535-14.595 14.595c0 8.061 6.535 14.595 14.595 14.595s14.595-6.535 14.595-14.595z" />
<glyph unicode="&#xe97f;" d="M760.194 149.9c0-8.061-6.535-14.595-14.595-14.595s-14.595 6.535-14.595 14.595c0 8.061 6.535 14.595 14.595 14.595s14.595-6.535 14.595-14.595z" />
<glyph unicode="&#xe980;" d="M873.175 462.479c0-173.432-140.595-314.027-314.027-314.027s-314.027 140.595-314.027 314.027c0 173.432 140.595 314.027 314.027 314.027s314.027-140.595 314.027-314.027z" />
<glyph unicode="&#xe981;" d="M742.298 497.562c-3.492 0-6.987 1.335-9.653 4l-38.707 38.707c-5.332 5.332-5.332 13.974 0 19.306s13.974 5.332 19.306 0l38.707-38.707c5.332-5.332 5.332-13.974 0-19.306-2.669-2.669-6.161-4-9.653-4z" />
<glyph unicode="&#xe982;" d="M703.59 497.562c-3.492 0-6.987 1.335-9.653 4-5.332 5.332-5.332 13.974 0 19.306l38.707 38.707c5.332 5.332 13.974 5.332 19.306 0s5.332-13.974 0-19.306l-38.707-38.707c-2.666-2.669-6.161-4-9.653-4z" />
<glyph unicode="&#xe983;" d="M804.632 749.35c0-7.559-6.128-13.687-13.687-13.687s-13.687 6.128-13.687 13.687c0 7.559 6.128 13.687 13.687 13.687s13.687-6.128 13.687-13.687z" />
<glyph unicode="&#xe984;" d="M874.349 426.080c-6.854 0-13.626 1.693-19.842 5.014-9.933 5.308-17.213 14.186-20.466 24.972-3.267 10.772-2.147 22.173 3.174 32.119 5.308 9.933 14.172 17.213 24.958 20.48 10.772 3.28 22.187 2.147 32.133-3.174 9.919-5.308 17.2-14.172 20.466-24.958s2.147-22.187-3.174-32.133c-5.308-9.933-14.172-17.213-24.958-20.48-4.038-1.225-8.185-1.84-12.291-1.84zM874.404 483.174c-1.427 0-2.867-0.201-4.308-0.642-3.799-1.147-6.932-3.721-8.8-7.226-1.881-3.505-2.28-7.533-1.12-11.332 1.147-3.813 3.707-6.932 7.212-8.8 3.492-1.867 7.52-2.294 11.332-1.12 7.854 2.386 12.305 10.708 9.919 18.562-1.946 6.41-7.864 10.557-14.237 10.557z" />
<glyph unicode="&#xe985;" d="M287.256 221.28c-6.854 0-13.626 1.693-19.838 5.014-9.933 5.308-17.213 14.186-20.466 24.972-3.267 10.772-2.147 22.173 3.174 32.119 5.308 9.933 14.172 17.213 24.958 20.48 10.759 3.28 22.187 2.147 32.133-3.174 9.919-5.308 17.2-14.172 20.466-24.958s2.147-22.187-3.174-32.133c-5.308-9.933-14.172-17.213-24.958-20.48-4.041-1.225-8.189-1.84-12.295-1.84zM287.311 278.374c-1.427 0-2.867-0.201-4.308-0.642-3.799-1.147-6.932-3.721-8.8-7.226-1.881-3.505-2.28-7.533-1.12-11.332 1.147-3.813 3.707-6.932 7.212-8.8 3.492-1.867 7.506-2.307 11.332-1.12 7.854 2.386 12.305 10.708 9.919 18.562-1.946 6.41-7.864 10.557-14.237 10.557z" />
<glyph unicode="&#xe986;" d="M401.845 786.722c-34.205-34.205-87.6-37.328-125.447-9.591l-155.351-155.354 115.852-115.852 299.284 299.284-57.928 57.928z" />
<glyph unicode="&#xe987;" d="M236.896 492.268c-3.492 0-6.987 1.335-9.653 4l-115.852 115.852c-5.332 5.332-5.332 13.974 0 19.306l155.361 155.361c4.772 4.772 12.305 5.345 17.719 1.359 33.28-24.399 78.575-20.92 107.721 8.226l76.414 76.414c5.332 5.332 13.974 5.332 19.306 0l57.935-57.921c2.56-2.56 4-6.028 4-9.653s-1.44-7.093-4-9.653l-299.295-299.295c-2.669-2.666-6.161-3.997-9.656-3.997zM140.349 621.773l96.546-96.546 279.985 279.985-38.625 38.612-66.761-66.761c-35.919-35.932-90.293-42.506-133.28-17.425z" />
<glyph unicode="&#xe988;" d="M585.281 603.29c-34.205-34.205-37.328-87.6-9.591-125.447l-155.354-155.354-115.852 115.852 299.284 299.284 57.928-57.928z" />
<glyph unicode="&#xe989;" d="M420.335 308.838c-3.492 0-6.987 1.335-9.653 4l-115.852 115.852c-5.332 5.332-5.332 13.974 0 19.306l299.281 299.281c5.332 5.332 13.974 5.332 19.306 0l57.935-57.921c2.56-2.56 4-6.028 4-9.653s-1.44-7.093-4-9.653l-76.414-76.414c-29.146-29.146-32.614-74.452-8.24-107.732 3.987-5.427 3.4-12.96-1.359-17.719l-155.348-155.348c-2.669-2.666-6.161-4-9.656-4zM323.789 438.347l96.546-96.546 137.854 137.854c-25.068 42.974-18.493 97.359 17.439 133.294l66.761 66.758-38.625 38.612z" />
<glyph unicode="&#xe98a;" d="M265.795 534.896l96.529 96.529 67.57-67.57-96.529-96.529z" />
<glyph unicode="&#xe98b;" d="M333.442 453.652c-3.492 0-6.987 1.335-9.653 4l-67.587 67.587c-2.56 2.56-4 6.028-4 9.653s1.44 7.093 4 9.653l96.546 96.532c5.332 5.332 13.974 5.332 19.306 0l67.587-67.574c2.56-2.56 4-6.028 4-9.653s-1.44-7.093-4-9.653l-96.546-96.546c-2.666-2.666-6.158-4-9.653-4zM285.164 534.893l48.282-48.282 77.24 77.24-48.282 48.268z" />
<glyph unicode="&#xe98c;" d="M449.181 351.443l96.529 96.529 318.546-318.546-96.529-96.529z" />
<glyph unicode="&#xe98d;" d="M767.898 19.214c-3.492 0-6.987 1.335-9.653 4l-318.601 318.587c-2.56 2.56-4 6.028-4 9.653s1.44 7.093 4 9.653l96.546 96.546c2.56 2.56 6.028 4 9.653 4s7.093-1.44 9.653-4l318.587-318.601c5.332-5.332 5.332-13.974 0-19.306l-96.532-96.532c-2.669-2.666-6.161-4-9.653-4zM468.603 351.454l299.295-299.281 77.227 77.227-299.281 299.295z" />
<glyph unicode="&#xe98e;" d="M304.483 482.615c-3.492 0-6.987 1.335-9.653 4-5.332 5.332-5.332 13.974 0 19.306l38.612 38.625c5.332 5.332 13.974 5.332 19.306 0s5.332-13.974 0-19.306l-38.612-38.625c-2.666-2.669-6.161-4-9.653-4z" />
<glyph unicode="&#xe98f;" d="M487.909 299.185c-3.492 0-6.987 1.335-9.653 4-5.332 5.332-5.332 13.974 0 19.306l38.625 38.612c5.332 5.332 13.974 5.332 19.306 0s5.332-13.974 0-19.306l-38.625-38.612c-2.666-2.666-6.158-4-9.653-4z" />
<glyph unicode="&#xe990;" d="M526.537 260.56c-3.492 0-6.987 1.335-9.653 4-5.332 5.332-5.332 13.974 0 19.306l38.612 38.625c5.332 5.332 13.974 5.332 19.306 0s5.332-13.974 0-19.306l-38.612-38.625c-2.666-2.666-6.161-4-9.653-4z" />
<glyph unicode="&#xe991;" d="M565.149 221.945c-3.492 0-6.987 1.335-9.653 4-5.332 5.332-5.332 13.974 0 19.306l38.612 38.612c5.332 5.332 13.974 5.332 19.306 0s5.332-13.974 0-19.306l-38.612-38.612c-2.666-2.666-6.158-4-9.653-4z" />
<glyph unicode="&#xe992;" d="M603.764 183.334c-3.492 0-6.987 1.335-9.653 4-5.332 5.332-5.332 13.974 0 19.306l38.625 38.612c5.332 5.332 13.974 5.332 19.306 0s5.332-13.974 0-19.306l-38.625-38.612c-2.666-2.666-6.161-4-9.653-4z" />
<glyph unicode="&#xe993;" d="M642.389 144.719c-3.492 0-6.987 1.335-9.653 4-5.332 5.332-5.332 13.974 0 19.306l38.612 38.612c5.332 5.332 13.974 5.332 19.306 0s5.332-13.974 0-19.306l-38.612-38.612c-2.666-2.666-6.161-4-9.653-4z" />
<glyph unicode="&#xe994;" d="M681.004 106.093c-3.492 0-6.987 1.335-9.653 4-5.332 5.332-5.332 13.974 0 19.306l38.612 38.625c5.332 5.332 13.974 5.332 19.306 0s5.332-13.974 0-19.306l-38.612-38.625c-2.669-2.666-6.161-4-9.653-4z" />
<glyph unicode="&#xe995;" d="M777.551 92.44c-0.014 0-0.014 0-0.027 0-7.294 0-14.148 2.854-19.292 8.015-10.639 10.626-10.639 27.959 0.014 38.601 5.134 5.147 11.988 8.001 19.279 8.001h0.027c7.294 0 14.148-2.84 19.306-8.001 10.653-10.639 10.653-27.972 0-38.612-5.161-5.164-12.015-8.004-19.306-8.004zM777.537 119.76l0.014-0.014z" />
<glyph unicode="&#xe996;" d="M447.638 438.344c0-15.081-12.226-27.307-27.307-27.307s-27.307 12.226-27.307 27.307c0 15.081 12.226 27.307 27.307 27.307s27.307-12.226 27.307-27.307z" />
<glyph unicode="&#xe997;" d="M420.335 397.387c-10.947 0-21.241 4.267-28.972 12.001-7.721 7.721-11.988 18.012-11.988 28.959 0 10.933 4.267 21.228 12.001 28.959 15.428 15.466 42.441 15.466 57.921 0 7.735-7.735 12.001-18.026 12.001-28.959 0-10.947-4.267-21.241-12.001-28.972-7.735-7.721-18.026-11.988-28.962-11.988zM420.335 452c-3.652 0-7.066-1.413-9.639-4-2.587-2.587-4.014-6.014-4.014-9.653 0-3.652 1.413-7.066 4-9.639 5.161-5.199 14.121-5.188 19.306-0.014 2.587 2.587 4 6.001 4 9.653 0 3.639-1.427 7.066-4 9.653-2.584 2.574-6.011 4-9.653 4z" />
<glyph unicode="&#xe998;" d="M217.59 530.893c-3.492 0-6.987 1.335-9.653 4-5.332 5.332-5.332 13.974 0 19.306l96.546 96.532c5.332 5.332 13.974 5.332 19.306 0s5.332-13.974 0-19.306l-96.546-96.532c-2.666-2.666-6.161-4-9.653-4z" />
<glyph unicode="&#xe999;" d="M887.467 550.4c0-173.432-140.595-314.027-314.027-314.027s-314.027 140.595-314.027 314.027c0 173.432 140.595 314.027 314.027 314.027s314.027-140.595 314.027-314.027z" />
<glyph unicode="&#xe99a;" d="M783.892 585.708c-3.492 0-6.987 1.335-9.653 4l-38.612 38.612c-5.332 5.332-5.332 13.974 0 19.306s13.974 5.332 19.306 0l38.612-38.612c5.332-5.332 5.332-13.974 0-19.306-2.666-2.669-6.158-4-9.653-4z" />
<glyph unicode="&#xe99b;" d="M745.281 585.708c-3.492 0-6.987 1.335-9.653 4-5.332 5.332-5.332 13.974 0 19.306l38.612 38.612c5.332 5.332 13.974 5.332 19.306 0s5.332-13.974 0-19.306l-38.612-38.612c-2.666-2.669-6.161-4-9.653-4z" />
<glyph unicode="&#xe99c;" d="M477.867 809.813c0-7.541-6.113-13.653-13.653-13.653s-13.653 6.113-13.653 13.653c0 7.541 6.113 13.653 13.653 13.653s13.653-6.113 13.653-13.653z" />
<glyph unicode="&#xe99d;" d="M327.68 659.627c-22.586 0-40.96 18.374-40.96 40.96s18.374 40.96 40.96 40.96 40.96-18.374 40.96-40.96-18.374-40.96-40.96-40.96zM327.68 714.24c-7.526 0-13.653-6.127-13.653-13.653s6.127-13.653 13.653-13.653 13.653 6.127 13.653 13.653-6.127 13.653-13.653 13.653z" />
<glyph unicode="&#xe99e;" d="M464.213 523.093c-3.492 0-6.987 1.335-9.653 4l-40.96 40.96c-5.332 5.332-5.332 13.974 0 19.306l40.96 40.96c5.332 5.332 13.974 5.332 19.306 0s5.332-13.974 0-19.306l-31.307-31.307 31.307-31.307c5.332-5.332 5.332-13.974 0-19.306-2.666-2.666-6.161-4-9.653-4z" />
<glyph unicode="&#xe99f;" d="M546.133 564.053h-122.88c-7.54 0-13.653 6.113-13.653 13.653s6.113 13.653 13.653 13.653h122.88c7.54 0 13.653-6.113 13.653-13.653s-6.113-13.653-13.653-13.653z" />
<glyph unicode="&#xe9a0;" d="M286.72 31.573c-3.492 0-6.987 1.335-9.653 4-5.332 5.332-5.332 13.974 0 19.306l31.307 31.307-31.307 31.307c-5.332 5.332-5.332 13.974 0 19.306s13.974 5.332 19.306 0l40.96-40.96c5.332-5.332 5.332-13.974 0-19.306l-40.96-40.96c-2.666-2.666-6.161-4-9.653-4z" />
<glyph unicode="&#xe9a1;" d="M327.68 72.533h-122.88c-7.54 0-13.653 6.113-13.653 13.653s6.113 13.653 13.653 13.653h122.88c7.54 0 13.653-6.113 13.653-13.653s-6.113-13.653-13.653-13.653z" />
<glyph unicode="&#xe9a2;" d="M641.707 222.72h-402.773c-56.556 0-102.4 45.844-102.4 102.4s45.844 102.4 102.4 102.4h402.773z" />
<glyph unicode="&#xe9a3;" d="M641.707 209.067h-402.773c-63.993 0-116.053 52.060-116.053 116.053s52.060 116.053 116.053 116.053h402.773c7.54 0 13.653-6.113 13.653-13.653s-6.113-13.653-13.653-13.653h-402.773c-48.934 0-88.747-39.813-88.747-88.747s39.813-88.747 88.747-88.747h402.773c7.54 0 13.653-6.113 13.653-13.653s-6.113-13.653-13.653-13.653z" />
<glyph unicode="&#xe9a4;" d="M641.707 454.827h-27.307c-7.54 0-13.653 6.113-13.653 13.653s6.113 13.653 13.653 13.653h27.307c7.54 0 13.653-6.113 13.653-13.653s-6.113-13.653-13.653-13.653z" />
<glyph unicode="&#xe9a5;" d="M561.579 168.107h-52.548c-7.54 0-13.653 6.113-13.653 13.653s6.113 13.653 13.653 13.653h52.548c7.54 0 13.653-6.113 13.653-13.653s-6.113-13.653-13.653-13.653zM456.486 168.107h-52.548c-7.54 0-13.653 6.113-13.653 13.653s6.113 13.653 13.653 13.653h52.548c7.54 0 13.653-6.113 13.653-13.653s-6.113-13.653-13.653-13.653zM351.392 168.107h-52.538c-7.54 0-13.653 6.113-13.653 13.653s6.113 13.653 13.653 13.653h52.541c7.54 0 13.653-6.113 13.653-13.653s-6.117-13.653-13.657-13.653zM246.306 168.107h-15.933c-13.513 0-26.907 1.812-39.813 5.4-7.267 2.014-11.52 9.54-9.499 16.807 2.007 7.253 9.506 11.52 16.807 9.499 10.527-2.918 21.46-4.4 32.505-4.4h15.933c7.54 0 13.653-6.113 13.653-13.653s-6.113-13.653-13.653-13.653zM147.593 196.506c-2.932 0-5.895 0.939-8.387 2.881-15.333 11.953-28.013 26.552-37.68 43.401-3.755 6.54-1.495 14.879 5.048 18.633 6.533 3.761 14.892 1.498 18.633-5.048 7.898-13.752 18.255-25.679 30.788-35.441 5.946-4.632 7.014-13.213 2.379-19.166-2.697-3.451-6.721-5.26-10.783-5.26zM96.679 285.385c-6.758 0-12.633 5.021-13.52 11.906-0.819 6.366-1.239 12.855-1.239 19.268v17.121c0.007 6.588 0.44 13.165 1.287 19.572 0.98 7.479 8.001 12.745 15.312 11.752 7.479-0.98 12.739-7.84 11.752-15.312-0.686-5.246-1.041-10.639-1.048-16.026v-17.108c0-5.253 0.341-10.561 1.014-15.773 0.966-7.479-4.314-14.319-11.793-15.288-0.591-0.079-1.178-0.113-1.765-0.113zM113.5 387.253c-2.314 0-4.652 0.587-6.806 1.826-6.533 3.761-8.772 12.114-5.007 18.647 9.694 16.821 22.395 31.392 37.765 43.312 5.939 4.615 14.52 3.56 19.152-2.42 4.622-5.953 3.54-14.534-2.42-19.152-12.554-9.742-22.927-21.641-30.846-35.379-2.526-4.379-7.117-6.833-11.837-6.833zM194.475 449.987c-5.994 0-11.486 3.973-13.155 10.028-2.007 7.274 2.26 14.793 9.527 16.794 12.814 3.533 26.112 5.328 39.526 5.328h16.207c7.54 0 13.653-6.113 13.653-13.653s-6.113-13.653-13.653-13.653h-16.207c-10.96 0-21.821-1.461-32.259-4.338-1.219-0.345-2.441-0.505-3.639-0.505zM561.852 454.827h-52.548c-7.54 0-13.653 6.113-13.653 13.653s6.113 13.653 13.653 13.653h52.548c7.54 0 13.653-6.113 13.653-13.653s-6.113-13.653-13.653-13.653zM456.759 454.827h-52.548c-7.54 0-13.653 6.113-13.653 13.653s6.113 13.653 13.653 13.653h52.548c7.54 0 13.653-6.113 13.653-13.653s-6.113-13.653-13.653-13.653zM351.672 454.827h-52.545c-7.54 0-13.653 6.113-13.653 13.653s6.113 13.653 13.653 13.653h52.548c7.54 0 13.653-6.113 13.653-13.653s-6.117-13.653-13.657-13.653z" />
<glyph unicode="&#xe9a6;" d="M641.707 168.107h-27.307c-7.54 0-13.653 6.113-13.653 13.653s6.113 13.653 13.653 13.653h27.307c7.54 0 13.653-6.113 13.653-13.653s-6.113-13.653-13.653-13.653z" />
<glyph unicode="&#xe9a7;" d="M900.345 168.107h-189.594c-15.51 0-28.081 12.575-28.081 28.081v257.86c0 15.51 12.575 28.081 28.081 28.081h189.594c15.51 0 28.081-12.575 28.081-28.081v-257.86c0-15.507-12.575-28.081-28.081-28.081z" />
<glyph unicode="&#xe9a8;" d="M900.345 154.453h-189.6c-23.013 0-41.735 18.719-41.735 41.735v257.867c0 23.013 18.719 41.735 41.735 41.735h189.6c23.013 0 41.735-18.719 41.735-41.735v-257.867c0-23.016-18.719-41.735-41.735-41.735zM710.748 468.48c-7.953 0-14.428-6.472-14.428-14.428v-257.867c0-7.953 6.472-14.428 14.428-14.428h189.6c7.953 0 14.428 6.472 14.428 14.428v257.867c0 7.953-6.472 14.428-14.428 14.428z" />
<glyph unicode="&#xe9a9;" d="M259.413 222.72c-7.54 0-13.653 6.113-13.653 13.653v13.653c0 7.54 6.113 13.653 13.653 13.653s13.653-6.113 13.653-13.653v-13.653c0-7.54-6.113-13.653-13.653-13.653z" />
<glyph unicode="&#xe9aa;" d="M327.68 222.72c-7.54 0-13.653 6.113-13.653 13.653v13.653c0 7.54 6.113 13.653 13.653 13.653s13.653-6.113 13.653-13.653v-13.653c0-7.54-6.113-13.653-13.653-13.653z" />
<glyph unicode="&#xe9ab;" d="M395.947 222.72c-7.54 0-13.653 6.113-13.653 13.653v13.653c0 7.54 6.113 13.653 13.653 13.653s13.653-6.113 13.653-13.653v-13.653c0-7.54-6.113-13.653-13.653-13.653z" />
<glyph unicode="&#xe9ac;" d="M464.213 222.72c-7.54 0-13.653 6.113-13.653 13.653v13.653c0 7.54 6.113 13.653 13.653 13.653s13.653-6.113 13.653-13.653v-13.653c0-7.54-6.113-13.653-13.653-13.653z" />
<glyph unicode="&#xe9ad;" d="M532.48 222.72c-7.54 0-13.653 6.113-13.653 13.653v13.653c0 7.54 6.113 13.653 13.653 13.653s13.653-6.113 13.653-13.653v-13.653c0-7.54-6.113-13.653-13.653-13.653z" />
<glyph unicode="&#xe9ae;" d="M600.747 222.72c-7.54 0-13.653 6.113-13.653 13.653v13.653c0 7.54 6.113 13.653 13.653 13.653s13.653-6.113 13.653-13.653v-13.653c0-7.54-6.113-13.653-13.653-13.653z" />
<glyph unicode="&#xe9af;" d="M832.853 400.213c0-15.081-12.226-27.307-27.307-27.307s-27.307 12.226-27.307 27.307c0 15.081 12.226 27.307 27.307 27.307s27.307-12.226 27.307-27.307z" />
<glyph unicode="&#xe9b0;" d="M805.547 359.253c-22.586 0-40.96 18.374-40.96 40.96s18.374 40.96 40.96 40.96 40.96-18.374 40.96-40.96-18.374-40.96-40.96-40.96zM805.547 413.867c-7.526 0-13.653-6.127-13.653-13.653s6.127-13.653 13.653-13.653 13.653 6.127 13.653 13.653-6.127 13.653-13.653 13.653z" />
<glyph unicode="&#xe9b1;" d="M832.853 304.64c0-15.081-12.226-27.307-27.307-27.307s-27.307 12.226-27.307 27.307c0 15.081 12.226 27.307 27.307 27.307s27.307-12.226 27.307-27.307z" />
<glyph unicode="&#xe9b2;" d="M805.547 263.68c-22.586 0-40.96 18.374-40.96 40.96s18.374 40.96 40.96 40.96 40.96-18.374 40.96-40.96-18.374-40.96-40.96-40.96zM805.547 318.293c-7.526 0-13.653-6.127-13.653-13.653s6.127-13.653 13.653-13.653 13.653 6.127 13.653 13.653-6.127 13.653-13.653 13.653z" />
<glyph unicode="&#xe9b3;" d="M873.813 209.067h-136.533c-7.54 0-13.653 6.113-13.653 13.653s6.113 13.653 13.653 13.653h136.533c7.54 0 13.653-6.113 13.653-13.653s-6.113-13.653-13.653-13.653z" />
<glyph unicode="&#xe9b4;" d="M819.2 499.985c0-173.432-140.595-314.027-314.027-314.027s-314.027 140.595-314.027 314.027c0 173.432 140.595 314.027 314.027 314.027s314.027-140.595 314.027-314.027z" />
<glyph unicode="&#xe9b5;" d="M163.84 540.945c-22.586 0-40.96 18.374-40.96 40.96s18.374 40.96 40.96 40.96 40.96-18.374 40.96-40.96-18.374-40.96-40.96-40.96zM163.84 595.558c-7.526 0-13.653-6.12-13.653-13.653s6.127-13.653 13.653-13.653 13.653 6.12 13.653 13.653-6.127 13.653-13.653 13.653z" />
<glyph unicode="&#xe9b6;" d="M518.827 677.478c-22.586 0-40.96 18.374-40.96 40.96s18.374 40.96 40.96 40.96 40.96-18.374 40.96-40.96-18.374-40.96-40.96-40.96zM518.827 732.092c-7.533 0-13.653-6.12-13.653-13.653s6.12-13.653 13.653-13.653 13.653 6.12 13.653 13.653-6.12 13.653-13.653 13.653z" />
<glyph unicode="&#xe9b7;" d="M860.16 540.945c0-7.541-6.113-13.653-13.653-13.653s-13.653 6.113-13.653 13.653c0 7.541 6.113 13.653 13.653 13.653s13.653-6.113 13.653-13.653z" />
<glyph unicode="&#xe9b8;" d="M273.067 554.598c0-7.541-6.113-13.653-13.653-13.653s-13.653 6.113-13.653 13.653c0 7.541 6.113 13.653 13.653 13.653s13.653-6.113 13.653-13.653z" />
<glyph unicode="&#xe9b9;" d="M914.773 581.905c0-7.541-6.113-13.653-13.653-13.653s-13.653 6.113-13.653 13.653c0 7.541 6.113 13.653 13.653 13.653s13.653-6.113 13.653-13.653z" />
<glyph unicode="&#xe9ba;" d="M382.293 636.518c0-7.541-6.113-13.653-13.653-13.653s-13.653 6.113-13.653 13.653c0 7.541 6.113 13.653 13.653 13.653s13.653-6.113 13.653-13.653z" />
<glyph unicode="&#xe9bb;" d="M901.12 308.838c0-7.541-6.113-13.653-13.653-13.653s-13.653 6.113-13.653 13.653c0 7.541 6.113 13.653 13.653 13.653s13.653-6.113 13.653-13.653z" />
<glyph unicode="&#xe9bc;" d="M409.6 459.025c0-7.541-6.113-13.653-13.653-13.653s-13.653 6.113-13.653 13.653c0 7.541 6.113 13.653 13.653 13.653s13.653-6.113 13.653-13.653z" />
<glyph unicode="&#xe9bd;" d="M679.639 515.297l-77.233 77.233 173.78 193.089c26.658 26.658 69.885 26.658 96.543 0s26.658-69.885 0-96.543z" />
<glyph unicode="&#xe9be;" d="M679.639 501.641c-3.505 0-7.001 1.335-9.653 4l-77.24 77.24c-5.134 5.134-5.345 13.387-0.495 18.787l173.786 193.079c15.961 16.002 36.533 24.521 58.412 24.521s42.455-8.52 57.921-23.999c15.479-15.466 23.999-36.041 23.999-57.921s-8.52-42.455-23.999-57.921l-193.601-174.281c-2.598-2.345-5.864-3.505-9.131-3.505zM621.213 593.026l58.921-58.921 183.453 165.12c9.8 9.827 15.479 23.535 15.479 38.12s-5.68 28.293-16.002 38.612c-20.64 20.64-56.586 20.64-77.227 0z" />
<glyph unicode="&#xe9bf;" d="M698.948 578.881c-3.492 0-6.987 1.335-9.653 4l-48.268 48.268c-5.332 5.332-5.332 13.974 0 19.306s13.974 5.332 19.306 0l48.268-48.268c5.332-5.332 5.332-13.974 0-19.306-2.669-2.669-6.161-4-9.653-4z" />
<glyph unicode="&#xe9c0;" d="M95.573 213.265h832.853v-136.533h-832.853z" />
<glyph unicode="&#xe9c1;" d="M600.747 90.385h-122.88c-7.54 0-13.653 6.106-13.653 13.653s6.113 13.653 13.653 13.653h122.88c7.547 0 13.653-6.106 13.653-13.653s-6.106-13.653-13.653-13.653z" />
<glyph unicode="&#xe9c2;" d="M395.947 131.345h-40.96c-7.54 0-13.653 6.106-13.653 13.653s6.113 13.653 13.653 13.653h40.96c7.54 0 13.653-6.106 13.653-13.653s-6.113-13.653-13.653-13.653z" />
<glyph unicode="&#xe9c3;" d="M750.933 144.998h-54.613c-7.547 0-13.653 6.106-13.653 13.653s6.106 13.653 13.653 13.653h54.613c7.547 0 13.653-6.106 13.653-13.653s-6.106-13.653-13.653-13.653z" />
<glyph unicode="&#xe9c4;" d="M832.853 144.998h-27.307c-7.547 0-13.653 6.106-13.653 13.653s6.106 13.653 13.653 13.653h27.307c7.547 0 13.653-6.106 13.653-13.653s-6.106-13.653-13.653-13.653z" />
<glyph unicode="&#xe9c5;" d="M805.547 104.038h-54.613c-7.547 0-13.653 6.106-13.653 13.653s6.106 13.653 13.653 13.653h54.613c7.547 0 13.653-6.106 13.653-13.653s-6.106-13.653-13.653-13.653z" />
<glyph unicode="&#xe9c6;" d="M559.787 158.652h-54.613c-7.547 0-13.653 6.106-13.653 13.653s6.106 13.653 13.653 13.653h54.613c7.547 0 13.653-6.106 13.653-13.653s-6.106-13.653-13.653-13.653z" />
<glyph unicode="&#xe9c7;" d="M928.427 199.612h-832.853c-7.54 0-13.653 6.106-13.653 13.653s6.113 13.653 13.653 13.653h832.853c7.547 0 13.653-6.106 13.653-13.653s-6.106-13.653-13.653-13.653z" />
<glyph unicode="&#xe9c8;" d="M631.368 505.641l28.962 28.966-38.618 38.615-28.962-28.962-48.271-9.653-299.288-318.594 57.928-57.928 318.594 299.284z" />
<glyph unicode="&#xe9c9;" d="M303.121 144.425c-3.499 0-6.994 1.335-9.653 4l-57.928 57.935c-5.212 5.212-5.345 13.626-0.3 18.999l299.295 318.587c1.946 2.065 4.478 3.482 7.267 4.041l44.213 8.841 26.040 26.054c5.12 5.12 14.172 5.12 19.306 0l38.625-38.625c2.56-2.56 4-6.042 4-9.653 0-3.625-1.44-7.093-4-9.653l-26.054-26.040-8.841-44.213c-0.56-2.785-1.973-5.321-4.041-7.267l-318.587-299.295c-2.625-2.481-5.984-3.71-9.342-3.71zM264.206 216.306l39.212-39.212 305.753 287.239 8.8 43.988c0.532 2.639 1.826 5.065 3.734 6.973l19.319 19.306-19.319 19.319-19.306-19.319c-1.908-1.908-4.335-3.202-6.973-3.734l-43.988-8.8zM621.708 457.373h0.133z" />
<glyph unicode="&#xe9ca;" d="M428.626 327.868c-3.492 0-6.987 1.335-9.653 4-5.332 5.332-5.332 13.974 0 19.306l144.814 144.814c5.332 5.332 13.974 5.332 19.306 0s5.332-13.974 0-19.306l-144.814-144.814c-2.666-2.669-6.158-4-9.653-4z" />
<glyph unicode="&#xe9cb;" d="M204.8 254.225c-7.54 0-13.653 6.106-13.653 13.653v68.267h-20.48c-26.348 0-47.787 21.439-47.787 47.787v13.653c0 26.348 21.439 47.787 47.787 47.787s47.787-21.439 47.787-47.787v-34.133h6.827c11.295 0 20.48 9.185 20.48 20.48v54.613c0 26.348 21.439 47.787 47.787 47.787 11.295 0 20.48 9.185 20.48 20.48v13.653c0 26.348 21.439 47.787 47.787 47.787h47.787c7.54 0 13.653-6.106 13.653-13.653s-6.113-13.653-13.653-13.653h-47.787c-11.295 0-20.48-9.185-20.48-20.48v-13.653c0-26.348-21.439-47.787-47.787-47.787-11.295 0-20.48-9.185-20.48-20.48v-54.613c0-26.348-21.439-47.787-47.787-47.787h-6.827v-68.267c0-7.543-6.113-13.653-13.653-13.653zM170.667 418.065c-11.295 0-20.48-9.185-20.48-20.48v-13.653c0-11.295 9.185-20.48 20.48-20.48h20.48v34.133c0 11.295-9.185 20.48-20.48 20.48z" />
<glyph unicode="&#xe9cc;" d="M641.707 240.572c-7.547 0-13.653 6.106-13.653 13.653v40.96h-27.307c-22.586 0-40.96 18.374-40.96 40.96s18.374 40.96 40.96 40.96h13.653c22.586 0 40.96-18.374 40.96-40.96v-13.653h95.573c7.533 0 13.653 6.12 13.653 13.653v54.613c0 22.586 18.374 40.96 40.96 40.96h27.307c7.533 0 13.653 6.12 13.653 13.653v13.653c0 7.547 6.106 13.653 13.653 13.653s13.653-6.106 13.653-13.653v-13.653c0-22.586-18.374-40.96-40.96-40.96h-27.307c-7.533 0-13.653-6.12-13.653-13.653v-54.613c0-22.586-18.374-40.96-40.96-40.96h-95.573v-40.96c0-7.543-6.106-13.653-13.653-13.653zM600.747 349.798c-7.533 0-13.653-6.12-13.653-13.653s6.12-13.653 13.653-13.653h27.307v13.653c0 7.533-6.12 13.653-13.653 13.653z" />
<glyph unicode="&#xe9cd;" d="M914.773 409.842c0-173.432-140.595-314.027-314.027-314.027s-314.027 140.595-314.027 314.027c0 173.432 140.595 314.027 314.027 314.027s314.027-140.595 314.027-314.027z" />
<glyph unicode="&#xe9ce;" d="M742.932 390.537c-3.492 0-6.987 1.335-9.653 4l-38.612 38.612c-5.332 5.332-5.332 13.974 0 19.306s13.974 5.332 19.306 0l38.612-38.612c5.332-5.332 5.332-13.974 0-19.306-2.666-2.666-6.158-4-9.653-4z" />
<glyph unicode="&#xe9cf;" d="M704.321 390.537c-3.492 0-6.987 1.335-9.653 4-5.332 5.332-5.332 13.974 0 19.306l38.612 38.612c5.332 5.332 13.974 5.332 19.306 0s5.332-13.974 0-19.306l-38.612-38.612c-2.666-2.666-6.161-4-9.653-4z" />
<glyph unicode="&#xe9d0;" d="M210.452 513.417c-3.492 0-6.987 1.335-9.653 4l-38.612 38.612c-5.332 5.332-5.332 13.974 0 19.306s13.974 5.332 19.306 0l38.612-38.612c5.332-5.332 5.332-13.974 0-19.306-2.666-2.666-6.158-4-9.653-4z" />
<glyph unicode="&#xe9d1;" d="M171.841 513.417c-3.492 0-6.987 1.335-9.653 4-5.332 5.332-5.332 13.974 0 19.306l38.612 38.612c5.332 5.332 13.974 5.332 19.306 0s5.332-13.974 0-19.306l-38.612-38.612c-2.666-2.666-6.161-4-9.653-4z" />
<glyph unicode="&#xe9d2;" d="M368.64 573.682c-22.586 0-40.96 18.374-40.96 40.96s18.374 40.96 40.96 40.96 40.96-18.374 40.96-40.96-18.374-40.96-40.96-40.96zM368.64 628.296c-7.533 0-13.653-6.12-13.653-13.653s6.12-13.653 13.653-13.653 13.653 6.12 13.653 13.653-6.12 13.653-13.653 13.653z" />
<glyph unicode="&#xe9d3;" d="M518.827 641.949c0-7.541-6.113-13.653-13.653-13.653s-13.653 6.113-13.653 13.653c0 7.541 6.113 13.653 13.653 13.653s13.653-6.113 13.653-13.653z" />
<glyph unicode="&#xe9d4;" d="M95.573 232.349h832.853v-136.533h-832.853z" />
<glyph unicode="&#xe9d5;" d="M600.747 109.469h-122.88c-7.547 0-13.653 6.106-13.653 13.653s6.106 13.653 13.653 13.653h122.88c7.547 0 13.653-6.106 13.653-13.653s-6.106-13.653-13.653-13.653z" />
<glyph unicode="&#xe9d6;" d="M395.947 150.429h-40.96c-7.547 0-13.653 6.106-13.653 13.653s6.106 13.653 13.653 13.653h40.96c7.547 0 13.653-6.106 13.653-13.653s-6.106-13.653-13.653-13.653z" />
<glyph unicode="&#xe9d7;" d="M300.373 109.469h-40.96c-7.547 0-13.653 6.106-13.653 13.653s6.106 13.653 13.653 13.653h40.96c7.547 0 13.653-6.106 13.653-13.653s-6.106-13.653-13.653-13.653z" />
<glyph unicode="&#xe9d8;" d="M750.933 164.082h-54.613c-7.547 0-13.653 6.106-13.653 13.653s6.106 13.653 13.653 13.653h54.613c7.547 0 13.653-6.106 13.653-13.653s-6.106-13.653-13.653-13.653z" />
<glyph unicode="&#xe9d9;" d="M832.853 164.082h-27.307c-7.547 0-13.653 6.106-13.653 13.653s6.106 13.653 13.653 13.653h27.307c7.547 0 13.653-6.106 13.653-13.653s-6.106-13.653-13.653-13.653z" />
<glyph unicode="&#xe9da;" d="M805.547 123.122h-54.613c-7.547 0-13.653 6.106-13.653 13.653s6.106 13.653 13.653 13.653h54.613c7.547 0 13.653-6.106 13.653-13.653s-6.106-13.653-13.653-13.653z" />
<glyph unicode="&#xe9db;" d="M559.787 177.736h-54.613c-7.547 0-13.653 6.106-13.653 13.653s6.106 13.653 13.653 13.653h54.613c7.547 0 13.653-6.106 13.653-13.653s-6.106-13.653-13.653-13.653z" />
<glyph unicode="&#xe9dc;" d="M928.427 218.696h-832.853c-7.547 0-13.653 6.106-13.653 13.653s6.106 13.653 13.653 13.653h832.853c7.547 0 13.653-6.106 13.653-13.653s-6.106-13.653-13.653-13.653z" />
<glyph unicode="&#xe9dd;" d="M848.026 693.425c21.327 21.327 21.327 55.907 0 77.233s-55.907 21.327-77.233 0l-115.852-135.161-9.653 9.653-14.141-14.141c-8.185-8.185-8.185-21.46 0-29.645l47.589-47.589c8.185-8.185 21.46-8.185 29.645 0l14.141 14.141-9.653 9.653z" />
<glyph unicode="&#xe9de;" d="M693.559 534.002c-8.868 0-17.732 3.372-24.48 10.121l-47.585 47.585c-13.493 13.493-13.493 35.468 0 48.961l14.135 14.135c5.065 5.079 13.148 5.321 18.507 0.748l106.295 123.986c27.32 27.412 70.625 27.385 97.253 0.775 12.892-12.879 19.999-30.027 19.999-48.268s-7.107-35.386-19.999-48.268c-0.253-0.253-0.505-0.481-0.775-0.707l-123.986-106.295c4.574-5.359 4.335-13.442-0.748-18.507l-14.148-14.148c-6.745-6.745-15.613-10.117-24.467-10.117zM645.28 625.841l-4.478-4.478c-2.854-2.854-2.854-7.492 0-10.346l47.585-47.585c2.854-2.84 7.479-2.854 10.332 0l4.492 4.492c-2.693 2.693-4.134 6.373-3.987 10.172s1.867 7.373 4.762 9.841l134.735 115.494c7.52 7.694 11.653 17.841 11.653 28.614 0 10.947-4.267 21.228-12.001 28.959-15.961 15.961-41.946 15.988-57.935 0l-115.145-134.386c-2.468-2.895-6.042-4.615-9.841-4.762-3.799-0.198-7.492 1.294-10.172 3.987zM848.026 693.429h0.133z" />
<glyph unicode="&#xe9df;" d="M712.868 563.924c-3.492 0-6.987 1.335-9.653 4l-28.959 28.959c-5.332 5.332-5.332 13.974 0 19.306s13.974 5.332 19.306 0l28.959-28.959c5.332-5.332 5.332-13.974 0-19.306-2.666-2.669-6.161-4-9.653-4z" />
<glyph unicode="&#xe9e0;" d="M208.159 148.343l428.674 447.334 29.976-31.041z" />
<glyph unicode="&#xe9e1;" d="M208.159 134.697c-3.56 0-7.107 1.386-9.786 4.134-5.134 5.267-5.161 13.653-0.068 18.961l428.667 447.334c2.56 2.693 6.106 4.198 9.827 4.212h0.027c3.707 0 7.24-1.505 9.813-4.175l29.986-31.041c2.574-2.652 3.959-6.24 3.826-9.933-0.119-3.693-1.734-7.175-4.468-9.653l-458.65-416.294c-2.615-2.372-5.895-3.546-9.175-3.546zM636.867 575.99l-147.828-154.266 158.174 143.561z" />
<glyph unicode="&#xe9e2;" d="M901.12 407.040c0-173.432-140.595-314.027-314.027-314.027s-314.027 140.595-314.027 314.027c0 173.432 140.595 314.027 314.027 314.027s314.027-140.595 314.027-314.027z" />
<glyph unicode="&#xe9e3;" d="M791.893 598.187h-126.119c-20.835 0-37.721 16.886-37.721 37.721v30.546h163.84z" />
<glyph unicode="&#xe9e4;" d="M791.893 584.533h-126.119c-28.334 0-51.374 23.047-51.374 51.374v30.546c0 7.54 6.106 13.653 13.653 13.653h163.84c7.547 0 13.653-6.113 13.653-13.653v-68.267c0-7.54-6.106-13.653-13.653-13.653zM641.707 652.8v-16.893c0-13.274 10.8-24.067 24.067-24.067h112.466v40.96z" />
<glyph unicode="&#xe9e5;" d="M232.107 315.559v-17.746h327.68v54.613h341.333v109.227l-95.87 40.96-0.819 150.187c-6.089 40.363-39.096 77.452-80.804 81.92h-293.676c-41.4 0-74.964-33.563-74.964-74.96v-177.862c-72.564-34.352-122.88-80.722-122.88-166.339zM477.867 502.613l10.035 112.889c2.028 22.798 21.586 39.997 44.455 39.089l191.27-1.792c10.011-0.396 13.653-3.635 13.653-13.653v-117.873c0-10.308-8.356-18.661-18.661-18.661z" />
<glyph unicode="&#xe9e6;" d="M559.787 284.16h-327.68c-7.547 0-13.653 6.113-13.653 13.653v17.746c0 99.127 64.027 145.828 122.88 174.899v169.301c0 48.862 39.748 88.614 88.614 88.614h293.68c0.481 0 0.973-0.027 1.454-0.079 45.64-4.888 85.559-45.066 92.853-93.46 0.092-0.645 0.147-1.3 0.147-1.959l0.775-141.227 87.627-37.441c5.028-2.147 8.294-7.086 8.294-12.554v-109.227c0-7.54-6.106-13.653-13.653-13.653h-327.68v-40.96c-0.003-7.54-6.11-13.653-13.657-13.653zM245.76 311.467h300.373v40.96c0 7.54 6.106 13.653 13.653 13.653h327.68v86.559l-87.572 37.42c-5.014 2.133-8.267 7.038-8.294 12.479l-0.826 149.159c-5.813 35.85-34.789 65.457-67.908 69.369h-292.919c-33.799 0-61.307-27.501-61.307-61.307v-177.865c0-5.28-3.041-10.080-7.813-12.339-80.654-38.182-115.067-84.234-115.067-153.996zM718.612 488.96h-240.746c-3.826 0-7.479 1.608-10.066 4.434s-3.867 6.615-3.533 10.428l10.039 112.893c2.679 30.085 28.081 52.893 58.6 51.521l190.853-1.782c22.535-0.894 27.174-15.34 27.174-27.307v-117.873c0-17.821-14.493-32.314-32.321-32.314zM492.786 516.267h225.826c2.761 0 5.014 2.246 5.014 5.007v117.859c-0.174 0.007-0.348 0.014-0.546 0.027l-190.853 1.778c-0.399 0.020-0.812 0.027-1.225 0.027-15.466 0-28.146-11.506-29.495-26.665z" />
<glyph unicode="&#xe9e7;" d="M709.973 693.76c-7.547 0-13.653 6.113-13.653 13.653v27.307c0 7.54 6.106 13.653 13.653 13.653s13.653-6.113 13.653-13.653v-27.307c0-7.54-6.106-13.653-13.653-13.653z" />
<glyph unicode="&#xe9e8;" d="M655.36 693.76c-7.547 0-13.653 6.113-13.653 13.653v27.307c0 7.54 6.106 13.653 13.653 13.653s13.653-6.113 13.653-13.653v-27.307c0-7.54-6.106-13.653-13.653-13.653z" />
<glyph unicode="&#xe9e9;" d="M600.747 693.76c-7.547 0-13.653 6.113-13.653 13.653v21.934c0 7.54 6.106 13.653 13.653 13.653s13.653-6.113 13.653-13.653v-21.934c0-7.54-6.106-13.653-13.653-13.653z" />
<glyph unicode="&#xe9ea;" d="M546.133 693.76c-7.547 0-13.653 6.113-13.653 13.653v21.934c0 7.54 6.106 13.653 13.653 13.653s13.653-6.113 13.653-13.653v-21.934c0-7.54-6.106-13.653-13.653-13.653z" />
<glyph unicode="&#xe9eb;" d="M824.852 182.934c-3.492 0-6.987 1.335-9.653 4l-38.612 38.612c-5.332 5.332-5.332 13.974 0 19.306s13.974 5.332 19.306 0l38.612-38.612c5.332-5.332 5.332-13.974 0-19.306-2.666-2.669-6.158-4-9.653-4z" />
<glyph unicode="&#xe9ec;" d="M786.241 182.934c-3.492 0-6.987 1.335-9.653 4-5.332 5.332-5.332 13.974 0 19.306l38.612 38.612c5.332 5.332 13.974 5.332 19.306 0s5.332-13.974 0-19.306l-38.612-38.612c-2.666-2.669-6.161-4-9.653-4z" />
<glyph unicode="&#xe9ed;" d="M245.76 693.76c0-7.541-6.113-13.653-13.653-13.653s-13.653 6.113-13.653 13.653c0 7.541 6.113 13.653 13.653 13.653s13.653-6.113 13.653-13.653z" />
<glyph unicode="&#xe9ee;" d="M805.547 789.333c0-7.541-6.113-13.653-13.653-13.653s-13.653 6.113-13.653 13.653c0 7.541 6.113 13.653 13.653 13.653s13.653-6.113 13.653-13.653z" />
<glyph unicode="&#xe9ef;" d="M273.067 748.373c-22.586 0-40.96 18.374-40.96 40.96s18.374 40.96 40.96 40.96 40.96-18.374 40.96-40.96-18.374-40.96-40.96-40.96zM273.067 802.987c-7.533 0-13.653-6.127-13.653-13.653s6.12-13.653 13.653-13.653 13.653 6.127 13.653 13.653-6.12 13.653-13.653 13.653z" />
<glyph unicode="&#xe9f0;" d="M669.013 311.467c0-128.189-103.918-232.107-232.107-232.107s-232.107 103.918-232.107 232.107c0 128.189 103.918 232.107 232.107 232.107s232.107-103.918 232.107-232.107z" />
<glyph unicode="&#xe9f1;" d="M436.907 65.707c-135.506 0-245.76 110.247-245.76 245.76s110.254 245.76 245.76 245.76 245.76-110.247 245.76-245.76-110.254-245.76-245.76-245.76zM436.907 529.92c-120.453 0-218.453-98-218.453-218.453s98-218.453 218.453-218.453 218.453 98 218.453 218.453-98 218.453-218.453 218.453z" />
<glyph unicode="&#xe9f2;" d="M477.867 311.467c0-22.622-18.338-40.96-40.96-40.96s-40.96 18.338-40.96 40.96c0 22.622 18.338 40.96 40.96 40.96s40.96-18.338 40.96-40.96z" />
<glyph unicode="&#xe9f3;" d="M436.907 256.853c-30.119 0-54.613 24.501-54.613 54.613s24.494 54.613 54.613 54.613 54.613-24.501 54.613-54.613-24.494-54.613-54.613-54.613zM436.907 338.773c-15.053 0-27.307-12.247-27.307-27.307s12.254-27.307 27.307-27.307 27.307 12.247 27.307 27.307-12.254 27.307-27.307 27.307z" />
<glyph unicode="&#xe9f4;" d="M436.907 625.493c-173.431 0-314.027-140.595-314.027-314.027h177.493c0 75.407 61.129 136.533 136.533 136.533s136.533-61.126 136.533-136.533h177.493c0 173.431-140.595 314.027-314.027 314.027z" />
<glyph unicode="&#xe9f5;" d="M750.933 297.813h-177.493c-7.547 0-13.653 6.113-13.653 13.653 0 67.755-55.119 122.88-122.88 122.88s-122.88-55.125-122.88-122.88c0-7.54-6.106-13.653-13.653-13.653h-177.493c-7.547 0-13.653 6.113-13.653 13.653 0 180.681 146.999 327.68 327.68 327.68s327.68-146.999 327.68-327.68c0-7.54-6.106-13.653-13.653-13.653zM586.479 325.12h150.494c-7.175 159.307-139.015 286.72-300.066 286.72s-292.895-127.413-300.066-286.72h150.494c6.919 76.442 71.359 136.533 149.572 136.533s142.653-60.092 149.572-136.533z" />
<glyph unicode="&#xe9f6;" d="M195.666 393.393c-1.679 0-3.386 0.314-5.041 0.966-7.001 2.778-10.428 10.721-7.653 17.725 19.48 49.108 52.613 91.307 95.812 122.040 6.161 4.359 14.694 2.932 19.040-3.212 4.372-6.147 2.932-14.667-3.202-19.040-38.905-27.665-68.734-65.652-86.265-109.855-2.13-5.359-7.264-8.625-12.691-8.625z" />
<glyph unicode="&#xe9f7;" d="M436.907 65.707c-7.547 0-13.653 6.113-13.653 13.653v27.307c0 7.54 6.106 13.653 13.653 13.653s13.653-6.113 13.653-13.653v-27.307c0-7.54-6.106-13.653-13.653-13.653z" />
<glyph unicode="&#xe9f8;" d="M272.787 133.687c-3.492 0-6.987 1.335-9.653 4-5.332 5.328-5.332 13.974 0 19.306l19.306 19.313c5.332 5.332 13.974 5.332 19.306 0 5.332-5.328 5.332-13.974 0-19.306l-19.306-19.313c-2.666-2.666-6.161-4-9.653-4z" />
<glyph unicode="&#xe9f9;" d="M601.027 133.687c-3.492 0-6.987 1.335-9.653 4l-19.306 19.313c-5.332 5.332-5.332 13.981 0 19.306 5.332 5.332 13.974 5.332 19.306 0l19.306-19.313c5.332-5.332 5.332-13.981 0-19.306-2.666-2.666-6.161-4-9.653-4z" />
<glyph unicode="&#xe9fa;" d="M341.333 86.279c-1.881 0-3.785 0.393-5.601 1.219-6.881 3.099-9.933 11.185-6.827 18.060l11.24 24.887c3.106 6.868 11.213 9.94 18.053 6.82 6.881-3.099 9.933-11.185 6.827-18.060l-11.24-24.887c-2.28-5.045-7.24-8.038-12.452-8.038z" />
<glyph unicode="&#xe9fb;" d="M533.627 86.815c-5.188 0-10.134 2.953-12.428 7.967l-11.373 24.825c-3.147 6.854-0.133 14.961 6.735 18.101 6.868 3.181 14.961 0.119 18.094-6.728l11.373-24.825c3.133-6.854 0.133-14.961-6.735-18.101-1.84-0.847-3.772-1.239-5.666-1.239z" />
<glyph unicode="&#xe9fc;" d="M696.32 379.733c0-7.541-6.113-13.653-13.653-13.653s-13.653 6.113-13.653 13.653c0 7.541 6.113 13.653 13.653 13.653s13.653-6.113 13.653-13.653z" />
<glyph unicode="&#xe9fd;" d="M669.013 434.347c0-7.541-6.113-13.653-13.653-13.653s-13.653 6.113-13.653 13.653c0 7.541 6.113 13.653 13.653 13.653s13.653-6.113 13.653-13.653z" />
<glyph unicode="&#xe9fe;" d="M887.467 445.174c0-173.432-140.595-314.027-314.027-314.027s-314.027 140.595-314.027 314.027c0 173.432 140.595 314.027 314.027 314.027s314.027-140.595 314.027-314.027z" />
<glyph unicode="&#xe9ff;" d="M278.719 767.201c-3.492 0-6.987 1.335-9.653 4l-38.612 38.612c-5.332 5.332-5.332 13.974 0 19.306s13.974 5.332 19.306 0l38.612-38.612c5.332-5.332 5.332-13.974 0-19.306-2.666-2.669-6.158-4-9.653-4z" />
<glyph unicode="&#xea00;" d="M240.108 767.201c-3.492 0-6.987 1.335-9.653 4-5.332 5.332-5.332 13.974 0 19.306l38.612 38.612c5.332 5.332 13.974 5.332 19.306 0s5.332-13.974 0-19.306l-38.612-38.612c-2.666-2.669-6.161-4-9.653-4z" />
<glyph unicode="&#xea01;" d="M477.867 445.174c0-7.541-6.113-13.653-13.653-13.653s-13.653 6.113-13.653 13.653c0 7.541 6.113 13.653 13.653 13.653s13.653-6.113 13.653-13.653z" />
<glyph unicode="&#xea02;" d="M805.547 404.214c-22.586 0-40.96 18.374-40.96 40.96s18.374 40.96 40.96 40.96 40.96-18.374 40.96-40.96-18.374-40.96-40.96-40.96zM805.547 458.827c-7.533 0-13.653-6.127-13.653-13.653s6.12-13.653 13.653-13.653 13.653 6.127 13.653 13.653-6.12 13.653-13.653 13.653z" />
<glyph unicode="&#xea03;" d="M600.747 745.547h54.613v-109.227h-54.613z" />
<glyph unicode="&#xea04;" d="M655.36 622.667h-54.613c-7.547 0-13.653 6.113-13.653 13.653v109.227c0 7.54 6.106 13.653 13.653 13.653h54.613c7.547 0 13.653-6.113 13.653-13.653v-109.227c0-7.54-6.106-13.653-13.653-13.653zM614.4 649.974h27.307v81.92h-27.307z" />
<glyph unicode="&#xea05;" d="M709.973 568.054c0 52.784-42.79 95.573-95.573 95.573h-329.513c-36.69 0-66.434-29.744-66.434-66.434v-356.82h122.88v327.68z" />
<glyph unicode="&#xea06;" d="M341.333 226.72h-122.88c-7.547 0-13.653 6.113-13.653 13.653v356.82c0 44.162 35.932 80.087 80.094 80.087h329.506c60.228 0 109.227-48.998 109.227-109.227 0-7.54-6.106-13.653-13.653-13.653h-354.987v-314.027c0-7.54-6.106-13.653-13.653-13.653zM232.107 254.027h95.573v314.027c0 7.54 6.106 13.653 13.653 13.653h353.853c-6.519 38.694-40.267 68.267-80.787 68.267h-329.506c-29.105 0-52.787-23.682-52.787-52.78z" />
<glyph unicode="&#xea07;" d="M300.373 609.014c0-7.541-6.113-13.653-13.653-13.653s-13.653 6.113-13.653 13.653c0 7.541 6.113 13.653 13.653 13.653s13.653-6.113 13.653-13.653z" />
<glyph unicode="&#xea08;" d="M546.133 568.054h163.84v-40.96h-163.84z" />
<glyph unicode="&#xea09;" d="M709.973 513.44h-163.84c-7.547 0-13.653 6.113-13.653 13.653v40.96c0 7.54 6.106 13.653 13.653 13.653h163.84c7.547 0 13.653-6.113 13.653-13.653v-40.96c0-7.54-6.106-13.653-13.653-13.653zM559.787 540.747h136.533v13.653h-136.533z" />
<glyph unicode="&#xea0a;" d="M505.173 185.76v54.613h245.76v-54.613z" />
<glyph unicode="&#xea0b;" d="M750.933 172.107c-7.547 0-13.653 6.113-13.653 13.653v40.96h-218.453v-40.96c0-7.54-6.106-13.653-13.653-13.653s-13.653 6.113-13.653 13.653v54.613c0 7.54 6.106 13.653 13.653 13.653h245.76c7.547 0 13.653-6.113 13.653-13.653v-54.613c0-7.54-6.106-13.653-13.653-13.653z" />
<glyph unicode="&#xea0c;" d="M655.36 382.986v144.108h-54.613v-144.108c-16.258-9.462-27.307-26.877-27.307-47.039h109.227c0 20.163-11.049 37.577-27.307 47.039z" />
<glyph unicode="&#xea0d;" d="M682.667 322.294h-109.227c-7.547 0-13.653 6.113-13.653 13.653 0 21.347 10.295 41.513 27.307 54.333v136.813c0 7.54 6.106 13.653 13.653 13.653h54.613c7.547 0 13.653-6.113 13.653-13.653v-136.813c17.012-12.82 27.307-32.986 27.307-54.333 0-7.54-6.106-13.653-13.653-13.653zM589.452 349.6h77.199c-3.188 8.912-9.492 16.541-18.159 21.586-4.198 2.447-6.786 6.939-6.786 11.8v130.454h-27.307v-130.454c0-4.861-2.587-9.353-6.786-11.8-8.666-5.045-14.974-12.674-18.162-21.586z" />
<glyph unicode="&#xea0e;" d="M628.053 185.76h232.107c0-60.324-48.903-109.227-109.227-109.227h-587.093v109.227h396.991z" />
<glyph unicode="&#xea0f;" d="M750.933 62.88h-587.093c-7.547 0-13.653 6.113-13.653 13.653v109.227c0 7.54 6.106 13.653 13.653 13.653h396.988c7.547 0 13.653-6.113 13.653-13.653s-6.106-13.653-13.653-13.653h-383.334v-81.92h573.44c48.067 0 87.962 35.666 94.601 81.92h-217.481c-7.547 0-13.653 6.113-13.653 13.653s6.106 13.653 13.653 13.653h232.107c7.547 0 13.653-6.113 13.653-13.653 0-67.755-55.119-122.88-122.88-122.88z" />
<glyph unicode="&#xea10;" d="M245.76 240.374h68.267v-54.613h-68.267z" />
<glyph unicode="&#xea11;" d="M314.027 172.107h-68.267c-7.547 0-13.653 6.113-13.653 13.653v54.613c0 7.54 6.106 13.653 13.653 13.653h68.267c7.547 0 13.653-6.113 13.653-13.653v-54.613c0-7.54-6.106-13.653-13.653-13.653zM259.413 199.414h40.96v27.307h-40.96z" />
<glyph unicode="&#xea12;" d="M737.28 731.894h-218.453c-7.547 0-13.653 6.113-13.653 13.653s6.106 13.653 13.653 13.653h218.453c7.547 0 13.653-6.113 13.653-13.653s-6.106-13.653-13.653-13.653z" />
<glyph unicode="&#xea13;" d="M750.933 745.547c0-7.541-6.113-13.653-13.653-13.653s-13.653 6.113-13.653 13.653c0 7.541 6.113 13.653 13.653 13.653s13.653-6.113 13.653-13.653z" />
<glyph unicode="&#xea14;" d="M737.28 718.24c-15.053 0-27.307 12.247-27.307 27.307s12.254 27.307 27.307 27.307 27.307-12.247 27.307-27.307-12.254-27.307-27.307-27.307zM737.28 745.568v-0.020z" />
<glyph unicode="&#xea15;" d="M532.48 745.547c0-7.541-6.113-13.653-13.653-13.653s-13.653 6.113-13.653 13.653c0 7.541 6.113 13.653 13.653 13.653s13.653-6.113 13.653-13.653z" />
<glyph unicode="&#xea16;" d="M518.827 718.24c-15.053 0-27.307 12.247-27.307 27.307s12.254 27.307 27.307 27.307 27.307-12.247 27.307-27.307-12.254-27.307-27.307-27.307zM518.827 745.568v-0.020z" />
<glyph unicode="&#xea17;" d="M914.773 62.88h-805.547c-7.547 0-13.653 6.113-13.653 13.653s6.106 13.653 13.653 13.653h805.547c7.547 0 13.653-6.113 13.653-13.653s-6.106-13.653-13.653-13.653z" />
<glyph unicode="&#xea18;" d="M875.455 485.233c0-173.432-140.595-314.027-314.027-314.027s-314.027 140.595-314.027 314.027c0 173.432 140.595 314.027 314.027 314.027s314.027-140.595 314.027-314.027z" />
<glyph unicode="&#xea19;" d="M730.921 616.113c-3.492 0-6.987 1.335-9.653 4l-38.612 38.612c-5.332 5.332-5.332 13.974 0 19.306s13.974 5.332 19.306 0l38.612-38.612c5.332-5.332 5.332-13.974 0-19.306-2.666-2.666-6.158-4-9.653-4z" />
<glyph unicode="&#xea1a;" d="M692.309 616.113c-3.492 0-6.987 1.335-9.653 4-5.332 5.332-5.332 13.974 0 19.306l38.612 38.612c5.332 5.332 13.974 5.332 19.306 0s5.332-13.974 0-19.306l-38.612-38.612c-2.666-2.666-6.161-4-9.653-4z" />
<glyph unicode="&#xea1b;" d="M861.802 567.153c0-7.541-6.113-13.653-13.653-13.653s-13.653 6.113-13.653 13.653c0 7.541 6.113 13.653 13.653 13.653s13.653-6.113 13.653-13.653z" />
<glyph unicode="&#xea1c;" d="M233.748 539.846c-22.586 0-40.96 18.374-40.96 40.96s18.374 40.96 40.96 40.96 40.96-18.374 40.96-40.96-18.374-40.96-40.96-40.96zM233.748 594.459c-7.526 0-13.653-6.127-13.653-13.653s6.127-13.653 13.653-13.653 13.653 6.127 13.653 13.653-6.127 13.653-13.653 13.653z" />
<glyph unicode="&#xea1d;" d="M684.308 416.966h-450.56c-7.54 0-13.653 6.113-13.653 13.653s6.113 13.653 13.653 13.653h450.56c7.54 0 13.653-6.113 13.653-13.653s-6.113-13.653-13.653-13.653z" />
<glyph unicode="&#xea1e;" d="M602.388 649.073c0-75.405-61.128-136.533-136.533-136.533s-136.533 61.128-136.533 136.533c0 75.405 61.128 136.533 136.533 136.533s136.533-61.128 136.533-136.533z" />
<glyph unicode="&#xea1f;" d="M465.855 498.886c-82.814 0-150.187 67.372-150.187 150.187s67.372 150.187 150.187 150.187 150.187-67.372 150.187-150.187-67.372-150.187-150.187-150.187zM465.855 771.953c-67.755 0-122.88-55.125-122.88-122.88s55.125-122.88 122.88-122.88 122.88 55.125 122.88 122.88-55.125 122.88-122.88 122.88z" />
<glyph unicode="&#xea20;" d="M719.834 112.108l-270.913 489.868 71.687 39.646 231.267-418.178c21.897-39.595 7.55-89.44-32.041-111.336z" />
<glyph unicode="&#xea21;" d="M719.834 98.454c-1.266 0-2.54 0.174-3.772 0.532-3.482 1-6.42 3.345-8.175 6.513l-270.913 489.868c-3.652 6.601-1.26 14.906 5.338 18.555l71.687 39.646c3.161 1.761 6.895 2.202 10.38 1.174 3.482-1 6.42-3.345 8.175-6.513l231.267-418.181c25.508-46.114 8.735-104.38-37.379-129.888-2.041-1.126-4.314-1.707-6.608-1.707zM467.476 596.634l257.034-464.773c24.166 20.62 31.372 56.125 15.421 84.975l-224.662 406.231z" />
<glyph unicode="&#xea22;" d="M766.102 14.821c-4.806 0-9.465 2.54-11.96 7.045l-79.292 143.374c-3.652 6.601-1.26 14.906 5.338 18.555 6.608 3.645 14.906 1.26 18.555-5.338l79.292-143.374c3.652-6.601 1.26-14.906-5.338-18.555-2.096-1.161-4.362-1.707-6.595-1.707z" />
<glyph unicode="&#xea23;" d="M208.456 112.108l270.909 489.865-71.687 39.646-231.264-418.174c-21.897-39.595-7.55-89.44 32.041-111.336z" />
<glyph unicode="&#xea24;" d="M208.456 98.454c-2.294 0-4.567 0.58-6.608 1.707-22.34 12.353-38.533 32.672-45.592 57.207s-4.147 50.347 8.212 72.68l231.267 418.178c1.754 3.168 4.693 5.513 8.175 6.513 3.482 1.007 7.219 0.58 10.38-1.174l71.687-39.646c6.601-3.645 8.994-11.953 5.338-18.555l-270.913-489.865c-1.754-3.168-4.693-5.513-8.175-6.513-1.232-0.358-2.505-0.532-3.772-0.532zM413.020 623.066l-224.659-406.234c-8.827-15.954-10.906-34.393-5.868-51.913 3.761-13.066 11.148-24.46 21.279-33.068l257.041 464.78z" />
<glyph unicode="&#xea25;" d="M162.188 14.821c-2.232 0-4.499 0.546-6.595 1.707-6.601 3.645-8.994 11.953-5.338 18.555l79.292 143.374c3.645 6.601 11.967 8.987 18.555 5.338 6.601-3.645 8.994-11.953 5.338-18.555l-79.292-143.374c-2.485-4.506-7.154-7.045-11.96-7.045z" />
<glyph unicode="&#xea26;" d="M561.428 649.073c0-52.784-42.79-95.573-95.573-95.573s-95.573 42.79-95.573 95.573c0 52.784 42.79 95.573 95.573 95.573s95.573-42.79 95.573-95.573z" />
<glyph unicode="&#xea27;" d="M465.855 539.846c-60.228 0-109.227 48.998-109.227 109.227s48.998 109.227 109.227 109.227 109.227-48.998 109.227-109.227-48.998-109.227-109.227-109.227zM465.855 730.993c-45.172 0-81.92-36.748-81.92-81.92s36.748-81.92 81.92-81.92 81.92 36.748 81.92 81.92-36.748 81.92-81.92 81.92z" />
<glyph unicode="&#xea28;" d="M465.855 635.419c-7.54 0-13.653 6.113-13.653 13.653v163.84c0 7.54 6.113 13.653 13.653 13.653s13.653-6.113 13.653-13.653v-163.84c0-7.54-6.113-13.653-13.653-13.653z" />
<glyph unicode="&#xea29;" d="M438.548 867.526h54.613v-40.96h-54.613z" />
<glyph unicode="&#xea2a;" d="M493.162 812.913h-54.613c-7.54 0-13.653 6.113-13.653 13.653v40.96c0 7.54 6.113 13.653 13.653 13.653h54.613c7.54 0 13.653-6.113 13.653-13.653v-40.96c0-7.54-6.113-13.653-13.653-13.653zM452.202 840.219h27.307v13.653h-27.307z" />
<glyph unicode="&#xea2b;" d="M465.855 34.673c-7.54 0-13.92 6.106-13.92 13.653 0 7.54 5.854 13.647 13.394 13.647v-13.653l0.133 13.653c17.76 0.007 34.946 0.775 51.473 2.287 7.499 0.587 14.148-4.854 14.834-12.36s-4.84-14.152-12.353-14.834c-17.35-1.584-35.369-2.393-53.562-2.393zM412.501 37.086c-0.427 0-0.853 0.020-1.287 0.061-19.115 1.792-37.239 4.499-53.886 8.052-7.373 1.574-12.073 8.834-10.499 16.207 1.58 7.38 8.82 12.080 16.207 10.499 15.599-3.335 32.672-5.881 50.726-7.574 7.506-0.7 13.025-7.359 12.319-14.865-0.659-7.072-6.612-12.38-13.578-12.38zM570.487 44.687c-6.321 0-11.994 4.407-13.346 10.841-1.553 7.373 3.168 14.619 10.547 16.172 18.746 3.953 34.813 8.875 47.753 14.633 6.895 3.055 14.967-0.034 18.026-6.919 3.065-6.895-0.034-14.961-6.919-18.026-14.694-6.54-32.608-12.059-53.234-16.408-0.945-0.201-1.891-0.294-2.826-0.294zM309.757 60.634c-1.888 0-3.806 0.393-5.632 1.225-35.594 16.152-43.066 34.966-43.066 47.906 0 7.54 6.113 13.827 13.653 13.827s13.653-5.939 13.653-13.479v-0.348c0-5.205 7.107-13.995 27.040-23.040 6.868-3.113 9.905-11.206 6.793-18.074-2.29-5.038-7.25-8.018-12.442-8.018zM656.995 109.080l-13.647 0.546c0 5.379-7.182 14.22-27.327 23.306-6.874 3.099-9.933 11.185-6.833 18.060 3.113 6.881 11.206 9.919 18.060 6.833 35.874-16.186 43.407-35.072 43.407-48.060zM310.402 131.867c-5.212 0-10.192 3.007-12.465 8.073-3.079 6.888-0.007 14.961 6.874 18.046 14.66 6.567 32.567 12.121 53.234 16.493 7.421 1.526 14.626-3.161 16.186-10.534s-3.154-14.619-10.534-16.186c-18.767-3.973-34.826-8.912-47.715-14.694-1.812-0.812-3.714-1.198-5.581-1.198zM571.201 147.401c-0.939 0-1.894 0.092-2.854 0.3-15.633 3.321-32.707 5.854-50.739 7.526-7.506 0.693-13.032 7.345-12.332 14.855 0.693 7.513 7.352 13.1 14.855 12.332 19.094-1.768 37.226-4.461 53.9-8.008 7.373-1.567 12.080-8.82 10.513-16.193-1.369-6.42-7.035-10.813-13.343-10.813zM413.174 155.187c-6.98 0-12.933 5.321-13.582 12.401-0.693 7.513 4.833 14.159 12.339 14.848 17.48 1.615 35.622 2.427 53.92 2.427 0.505 0 1.007-0.027 1.505-0.085 7.54 0 12.988-6.072 12.988-13.612s-6.772-13.612-14.312-13.612c-0.126 0-0.273 0-0.42 0.007-17.388-0.007-34.601-0.785-51.173-2.307-0.427-0.044-0.853-0.065-1.266-0.065z" />
<glyph unicode="&#xea2c;" d="M826.027 488.963c0-173.432-140.595-314.027-314.027-314.027s-314.027 140.595-314.027 314.027c0 173.432 140.595 314.027 314.027 314.027s314.027-140.595 314.027-314.027z" />
<glyph unicode="&#xea2d;" d="M763.412 619.841c-3.492 0-6.987 1.335-9.653 4l-38.612 38.612c-5.332 5.332-5.332 13.974 0 19.306s13.974 5.332 19.306 0l38.612-38.612c5.332-5.332 5.332-13.974 0-19.306-2.666-2.666-6.158-4-9.653-4z" />
<glyph unicode="&#xea2e;" d="M724.801 619.841c-3.492 0-6.987 1.335-9.653 4-5.332 5.332-5.332 13.974 0 19.306l38.612 38.612c5.332 5.332 13.974 5.332 19.306 0s5.332-13.974 0-19.306l-38.612-38.612c-2.666-2.666-6.161-4-9.653-4z" />
<glyph unicode="&#xea2f;" d="M258.239 237.548c-3.492 0-6.987 1.335-9.653 4l-38.612 38.612c-5.332 5.332-5.332 13.974 0 19.306s13.974 5.332 19.306 0l38.612-38.612c5.332-5.332 5.332-13.974 0-19.306-2.666-2.666-6.158-4-9.653-4z" />
<glyph unicode="&#xea30;" d="M219.628 237.548c-3.492 0-6.987 1.335-9.653 4-5.332 5.332-5.332 13.974 0 19.306l38.612 38.612c5.332 5.332 13.974 5.332 19.306 0s5.332-13.974 0-19.306l-38.612-38.612c-2.666-2.666-6.161-4-9.653-4z" />
<glyph unicode="&#xea31;" d="M293.547 611.843c0-7.541-6.113-13.653-13.653-13.653s-13.653 6.113-13.653 13.653c0 7.541 6.113 13.653 13.653 13.653s13.653-6.113 13.653-13.653z" />
<glyph unicode="&#xea32;" d="M798.72 106.67c0-7.541-6.113-13.653-13.653-13.653s-13.653 6.113-13.653 13.653c0 7.541 6.113 13.653 13.653 13.653s13.653-6.113 13.653-13.653z" />
<glyph unicode="&#xea33;" d="M689.493 448.003c-22.586 0-40.96 18.374-40.96 40.96s18.374 40.96 40.96 40.96 40.96-18.374 40.96-40.96-18.374-40.96-40.96-40.96zM689.493 502.617c-7.533 0-13.653-6.127-13.653-13.653s6.12-13.653 13.653-13.653 13.653 6.127 13.653 13.653-6.12 13.653-13.653 13.653z" />
<glyph unicode="&#xea34;" d="M443.733 280.518v590.739l109.227-54.613v-614.4l-109.227 27.307z" />
<glyph unicode="&#xea35;" d="M552.96 188.59c-1.106 0-2.212 0.133-3.308 0.406l-109.227 27.307c-6.079 1.519-10.346 6.98-10.346 13.247v641.707c0 4.734 2.454 9.127 6.479 11.612s9.052 2.707 13.281 0.601l109.227-54.613c4.625-2.314 7.547-7.038 7.547-12.213v-614.4c0-4.205-1.932-8.175-5.253-10.759-2.427-1.894-5.386-2.895-8.4-2.895zM457.387 240.21l81.92-20.48v588.472l-81.92 40.96z" />
<glyph unicode="&#xea36;" d="M552.946 693.763c-2.055 0-4.134 0.461-6.093 1.44l-109.227 54.613c-6.748 3.372-9.479 11.575-6.106 18.319 3.386 6.748 11.575 9.479 18.319 6.106l109.227-54.613c6.748-3.372 9.479-11.575 6.106-18.319-2.4-4.789-7.212-7.547-12.227-7.547z" />
<glyph unicode="&#xea37;" d="M552.946 584.537c-2.055 0-4.134 0.461-6.093 1.44l-109.227 54.613c-6.748 3.372-9.479 11.575-6.106 18.319 3.386 6.755 11.575 9.465 18.319 6.106l109.227-54.613c6.748-3.372 9.479-11.575 6.106-18.319-2.4-4.789-7.212-7.547-12.227-7.547z" />
<glyph unicode="&#xea38;" d="M552.946 475.31c-2.055 0-4.134 0.461-6.093 1.44l-109.227 54.613c-6.748 3.372-9.479 11.575-6.106 18.319 3.386 6.748 11.575 9.479 18.319 6.106l109.227-54.613c6.748-3.372 9.479-11.575 6.106-18.319-2.4-4.789-7.212-7.547-12.227-7.547z" />
<glyph unicode="&#xea39;" d="M525.653 461.657v-177.493h-54.613v177.493h-31.177c-20.483 0-37.089-16.606-37.089-37.089v-290.584c0-60.327 48.906-109.233 109.233-109.233h81.913v399.817c0 20.483-16.606 37.089-37.089 37.089z" />
<glyph unicode="&#xea3a;" d="M593.92 11.097h-81.906c-67.761 0-122.894 55.125-122.894 122.887v290.587c0 27.979 22.76 50.739 50.746 50.739h31.174c7.547 0 13.653-6.113 13.653-13.653v-163.84h27.307v163.84c0 7.54 6.106 13.653 13.653 13.653h31.174c27.986 0 50.746-22.76 50.746-50.739v-399.821c0-7.54-6.106-13.653-13.653-13.653zM439.866 448.003c-12.919 0-23.439-10.513-23.439-23.433v-290.587c0-52.698 42.878-95.58 95.587-95.58h68.253v386.164c0 12.919-10.52 23.433-23.439 23.433h-17.521v-163.84c0-7.54-6.106-13.653-13.653-13.653h-54.613c-7.547 0-13.653 6.113-13.653 13.653v163.84h-17.521z" />
<glyph unicode="&#xea3b;" d="M471.040 284.163h54.613v-95.573h-54.613z" />
<glyph unicode="&#xea3c;" d="M525.653 174.937h-54.613c-7.547 0-13.653 6.113-13.653 13.653v95.573c0 7.54 6.106 13.653 13.653 13.653h54.613c7.547 0 13.653-6.113 13.653-13.653v-95.573c0-7.54-6.106-13.653-13.653-13.653zM484.693 202.243h27.307v68.267h-27.307z" />
<glyph unicode="&#xea3d;" d="M552.96 79.363c0-7.541-6.113-13.653-13.653-13.653s-13.653 6.113-13.653 13.653c0 7.541 6.113 13.653 13.653 13.653s13.653-6.113 13.653-13.653z" />
<glyph unicode="&#xea3e;" d="M928.427 536.747c0-173.432-140.595-314.027-314.027-314.027s-314.027 140.595-314.027 314.027c0 173.432 140.595 314.027 314.027 314.027s314.027-140.595 314.027-314.027z" />
<glyph unicode="&#xea3f;" d="M196.799 80.534c-3.492 0-6.987 1.335-9.653 4l-38.612 38.612c-5.332 5.332-5.332 13.974 0 19.306s13.974 5.332 19.306 0l38.612-38.612c5.332-5.332 5.332-13.974 0-19.306-2.666-2.669-6.158-4-9.653-4z" />
<glyph unicode="&#xea40;" d="M158.188 80.534c-3.492 0-6.987 1.335-9.653 4-5.332 5.332-5.332 13.974 0 19.306l38.612 38.612c5.332 5.332 13.974 5.332 19.306 0s5.332-13.974 0-19.306l-38.612-38.612c-2.666-2.669-6.161-4-9.653-4z" />
<glyph unicode="&#xea41;" d="M819.2 837.12c0-7.541-6.113-13.653-13.653-13.653s-13.653 6.113-13.653 13.653c0 7.541 6.113 13.653 13.653 13.653s13.653-6.113 13.653-13.653z" />
<glyph unicode="&#xea42;" d="M860.16 714.24c-22.586 0-40.96 18.374-40.96 40.96s18.374 40.96 40.96 40.96 40.96-18.374 40.96-40.96-18.374-40.96-40.96-40.96zM860.16 768.853c-7.526 0-13.653-6.127-13.653-13.653s6.127-13.653 13.653-13.653 13.653 6.127 13.653 13.653-6.127 13.653-13.653 13.653z" />
<glyph unicode="&#xea43;" d="M819.2 468.48c-0.416 0-0.799-0.113-1.212-0.123-2.14 26.051-7.311 51.227-15.189 75.192 0.352 0.157 0.666 0.369 1.024 0.519 18.562 7.878 38.909 4.509 53.968-6.755 1.171 9.254 0.208 18.889-3.697 28.095-11.786 27.764-43.844 40.718-71.612 28.935-0.358-0.154-0.649-0.393-1-0.55-11.124 21.088-24.47 40.81-39.745 58.863 0.283 0.297 0.505 0.625 0.799 0.915 14.257 14.257 34.386 18.76 52.572 13.954-2.383 9.018-6.881 17.596-13.954 24.665-21.33 21.33-55.907 21.33-77.233 0-0.29-0.29-0.478-0.638-0.761-0.932-19.487 16.507-40.926 30.754-63.928 42.394 0.14 0.369 0.215 0.748 0.362 1.113 7.554 18.695 24.323 30.703 42.94 33.386-5.717 7.369-13.21 13.507-22.48 17.251-27.965 11.298-59.795-2.212-71.096-30.177-0.137-0.335-0.167-0.679-0.297-1.014-22.316 6.919-45.674 11.424-69.748 13.418-0.010 0.413-0.085 0.809-0.085 1.225 0 20.163 11.052 37.577 27.307 47.039-8.062 4.693-17.309 7.574-27.307 7.574-30.164 0-54.613-24.45-54.613-54.613 0-0.416 0.113-0.799 0.123-1.212-26.051-2.14-51.227-7.311-75.192-15.189-0.157 0.352-0.369 0.666-0.519 1.024-7.878 18.562-4.512 38.909 6.755 53.968-9.254 1.171-18.893 0.212-28.095-3.697-27.764-11.786-40.718-43.844-28.935-71.608 0.154-0.358 0.393-0.649 0.55-1.004-21.088-11.124-40.81-24.47-58.863-39.745-0.297 0.283-0.625 0.505-0.915 0.799-14.257 14.257-18.76 34.386-13.954 52.572-9.018-2.383-17.596-6.881-24.665-13.954-21.33-21.327-21.33-55.907 0-77.233 0.29-0.29 0.638-0.478 0.932-0.761-16.507-19.487-30.754-40.926-42.394-63.928-0.369 0.14-0.744 0.215-1.113 0.365-18.695 7.554-30.703 24.323-33.386 42.94-7.369-5.717-13.507-13.21-17.251-22.48-11.298-27.965 2.212-59.795 30.177-71.096 0.335-0.137 0.679-0.167 1.014-0.297-6.919-22.316-11.424-45.674-13.418-69.748-0.413-0.014-0.809-0.089-1.225-0.089-20.163 0-37.577 11.052-47.039 27.307-4.693-8.062-7.574-17.309-7.574-27.307 0-30.164 24.45-54.613 54.613-54.613 0.416 0 0.799 0.113 1.212 0.123 2.14-26.051 7.311-51.227 15.189-75.192-0.352-0.157-0.666-0.369-1.024-0.519-18.562-7.878-38.909-4.512-53.968 6.755-1.171-9.254-0.208-18.889 3.697-28.095 11.786-27.764 43.844-40.718 71.612-28.935 0.358 0.154 0.649 0.393 1 0.55 11.124-21.088 24.47-40.81 39.745-58.863-0.283-0.297-0.505-0.625-0.799-0.915-14.257-14.257-34.386-18.756-52.572-13.954 2.383-9.018 6.881-17.592 13.954-24.665 21.33-21.33 55.907-21.33 77.233 0 0.29 0.29 0.478 0.638 0.761 0.932 19.487-16.507 40.926-30.754 63.928-42.394-0.14-0.369-0.215-0.748-0.362-1.113-7.554-18.695-24.323-30.703-42.94-33.386 5.717-7.369 13.21-13.507 22.48-17.251 27.965-11.302 59.795 2.212 71.096 30.177 0.137 0.335 0.167 0.679 0.294 1.014 22.316-6.919 45.674-11.424 69.751-13.418 0.010-0.413 0.085-0.809 0.085-1.225 0-20.163-11.052-37.577-27.307-47.039 8.062-4.693 17.309-7.574 27.307-7.574 30.164 0 54.613 24.45 54.613 54.613 0 0.416-0.113 0.799-0.123 1.212 26.051 2.14 51.227 7.311 75.192 15.189 0.157-0.352 0.369-0.666 0.519-1.024 7.878-18.562 4.512-38.909-6.755-53.968 9.254-1.171 18.893-0.208 28.095 3.697 27.764 11.786 40.718 43.844 28.935 71.612-0.154 0.358-0.393 0.649-0.55 1 21.088 11.124 40.81 24.47 58.863 39.745 0.297-0.283 0.625-0.505 0.915-0.799 14.257-14.257 18.76-34.386 13.954-52.569 9.018 2.383 17.596 6.881 24.665 13.954 21.33 21.33 21.33 55.907 0 77.233-0.29 0.29-0.638 0.478-0.932 0.761 16.507 19.487 30.754 40.926 42.394 63.928 0.369-0.14 0.748-0.215 1.113-0.362 18.695-7.554 30.703-24.323 33.386-42.94 7.369 5.717 13.507 13.21 17.251 22.48 11.298 27.965-2.212 59.798-30.177 71.096-0.335 0.137-0.679 0.167-1.014 0.297 6.919 22.316 11.424 45.674 13.418 69.748 0.413 0.010 0.809 0.085 1.225 0.085 20.163 0 37.577-11.052 47.039-27.307 4.693 8.062 7.574 17.309 7.574 27.307 0 30.16-24.45 54.61-54.613 54.61zM491.52 318.293c-67.864 0-122.88 55.016-122.88 122.88s55.016 122.88 122.88 122.88 122.88-55.016 122.88-122.88-55.016-122.88-122.88-122.88z" />
<glyph unicode="&#xea44;" d="M464.213 45.227c-11.933 0-23.433 3.174-34.181 9.428-4.198 2.447-6.779 6.939-6.779 11.8s2.587 9.353 6.786 11.8c9.527 5.547 16.213 14.227 19.026 24.293-16.234 2-32.201 5.127-47.701 9.339-17.579-28.18-52.5-40.093-83.494-27.6-11.059 4.475-20.535 11.721-28.153 21.545-2.98 3.84-3.693 8.974-1.874 13.479s5.902 7.707 10.714 8.4c10.906 1.574 20.347 7.107 26.733 15.38-15.879 8.868-31.048 19.005-45.312 30.287-27.208-19.152-64.092-16.527-87.747 7.127-8.434 8.441-14.319 18.814-17.5 30.826-1.239 4.7 0.106 9.708 3.546 13.148s8.441 4.792 13.141 3.546c10.687-2.84 21.528-1.413 30.641 3.721-9.905 12.728-18.913 26.16-26.914 40.134-13.732-3.342-28.133-2.294-41.499 3.099-16.906 6.833-30.14 19.838-37.267 36.625-4.659 10.981-6.233 22.801-4.68 35.133 0.608 4.826 3.734 8.96 8.212 10.861 4.475 1.894 9.612 1.273 13.513-1.635 8.806-6.601 19.401-9.332 29.747-8.035-4.919 17.36-8.455 35.174-10.561 53.2-32.321 5.379-57.040 33.533-57.040 67.352 0 11.933 3.174 23.433 9.428 34.181 2.447 4.198 6.939 6.779 11.8 6.779s9.353-2.587 11.8-6.786c5.547-9.527 14.227-16.213 24.293-19.026 2 16.234 5.127 32.201 9.339 47.701-28.18 17.579-40.127 52.494-27.6 83.494 4.475 11.059 11.721 20.535 21.545 28.153 3.833 2.987 8.98 3.707 13.479 1.874 4.506-1.819 7.707-5.902 8.4-10.714 1.574-10.906 7.107-20.347 15.38-26.733 8.868 15.879 18.999 31.048 30.287 45.312-19.166 27.215-16.541 64.079 7.127 87.747 8.428 8.428 18.801 14.312 30.826 17.5 4.673 1.246 9.701-0.106 13.148-3.546 3.441-3.434 4.785-8.441 3.546-13.141-2.819-10.667-1.406-21.528 3.721-30.641 12.728 9.905 26.16 18.913 40.134 26.914-3.328 13.732-2.301 28.133 3.099 41.499 6.833 16.906 19.838 30.14 36.625 37.267 10.967 4.659 22.787 6.233 35.133 4.68 4.826-0.608 8.96-3.734 10.861-8.212 1.901-4.475 1.28-9.619-1.635-13.513-6.595-8.813-9.353-19.395-8.035-29.747 17.36 4.919 35.174 8.455 53.2 10.561 5.379 32.321 33.533 57.040 67.352 57.040 11.933 0 23.433-3.174 34.181-9.428 4.198-2.447 6.779-6.939 6.779-11.8s-2.587-9.353-6.786-11.8c-9.527-5.547-16.213-14.227-19.026-24.293 16.234-2 32.201-5.127 47.701-9.339 17.572 28.18 52.473 40.134 83.494 27.6 11.059-4.475 20.535-11.721 28.153-21.545 2.98-3.84 3.693-8.974 1.874-13.479s-5.902-7.707-10.714-8.4c-10.906-1.574-20.347-7.107-26.733-15.38 15.879-8.868 31.048-19.005 45.312-30.287 27.201 19.166 64.072 16.541 87.747-7.127 8.428-8.428 14.312-18.801 17.5-30.826 1.239-4.7-0.106-9.708-3.546-13.148-3.447-3.441-8.472-4.779-13.141-3.546-10.673 2.819-21.528 1.386-30.641-3.721 9.905-12.728 18.913-26.16 26.914-40.134 13.732 3.335 28.133 2.301 41.499-3.099 16.906-6.833 30.14-19.838 37.267-36.625 4.659-10.974 6.233-22.794 4.68-35.133-0.608-4.826-3.734-8.96-8.212-10.861-4.461-1.915-9.612-1.28-13.513 1.635-8.813 6.601-19.374 9.346-29.747 8.035 4.919-17.367 8.455-35.174 10.561-53.2 32.321-5.379 57.040-33.533 57.040-67.352 0-11.933-3.174-23.433-9.428-34.181-2.447-4.198-6.939-6.779-11.8-6.779s-9.353 2.587-11.8 6.786c-5.547 9.527-14.227 16.213-24.293 19.026-2-16.234-5.127-32.201-9.339-47.701 28.18-17.579 40.127-52.494 27.6-83.494-4.475-11.059-11.721-20.535-21.545-28.153-3.847-2.966-9.001-3.68-13.479-1.874-4.506 1.819-7.707 5.902-8.4 10.714-1.574 10.906-7.107 20.347-15.38 26.733-8.868-15.879-18.999-31.048-30.287-45.312 19.159-27.208 16.541-64.079-7.127-87.747-8.428-8.428-18.801-14.312-30.826-17.5-4.707-1.232-9.708 0.113-13.148 3.546s-4.785 8.441-3.546 13.141c2.819 10.667 1.406 21.528-3.721 30.641-12.728-9.905-26.16-18.913-40.134-26.914 3.328-13.732 2.301-28.133-3.099-41.499-6.833-16.906-19.838-30.14-36.625-37.267-10.967-4.659-22.781-6.24-35.133-4.68-4.826 0.608-8.96 3.734-10.861 8.212-1.901 4.475-1.28 9.619 1.635 13.513 6.595 8.813 9.353 19.395 8.035 29.747-17.36-4.919-35.174-8.455-53.2-10.561-5.379-32.321-33.533-57.040-67.352-57.040zM463.974 72.533c22.361-0.672 40.881 17.975 41.192 40.373-0.055 0.567-0.106 1.212-0.113 1.58-0.113 7.192 5.366 13.24 12.534 13.827 24.593 2.021 48.828 6.912 72.038 14.548 6.625 2.188 13.834-0.98 16.708-7.332 0.061-0.133 0.635-1.287 0.693-1.42 5.806-13.687 6.772-28.839 3.181-43.025 0.068 0.027 0.14 0.061 0.212 0.085 10.073 4.28 17.872 12.22 21.975 22.361 4.028 9.96 4 20.873-0.048 30.799-0.246 0.454-0.512 0.959-0.645 1.253-2.98 6.581-0.321 14.339 6.072 17.712 20.074 10.581 39.052 23.398 56.405 38.086 5.359 4.54 13.326 4.28 18.36-0.652 0.079-0.072 1.065-0.945 1.14-1.027 10.493-10.486 17.053-24.173 19.033-38.666 0.055 0.055 0.113 0.106 0.167 0.16 15.821 15.828 15.961 41.486 0.433 57.494-0.461 0.372-0.973 0.812-1.253 1.085-5.127 5.007-5.506 13.128-0.881 18.592 15.879 18.739 29.546 39.352 40.625 61.259 3.154 6.212 10.486 9.045 16.981 6.625 0.16-0.061 1.434-0.495 1.587-0.56 13.752-5.553 25.139-15.578 32.628-28.153 0.034 0.072 0.061 0.147 0.085 0.218 4.099 10.141 4 21.272-0.273 31.348-4.195 9.882-11.919 17.579-21.787 21.74-0.488 0.14-1.007 0.307-1.321 0.427-6.741 2.56-10.325 9.919-8.192 16.807 6.625 21.367 10.953 43.848 12.855 66.826 0.573 6.912 6.233 12.295 13.165 12.52 0.147 0.007 1.519 0.092 1.666 0.092 14.94 0 29.293-5.041 40.96-13.892 0 0.079 0 0.16 0 0.239 0 22.388-18.053 40.639-40.373 40.953-0.679-0.068-1.307-0.119-1.806-0.113-7.086 0-13.018 5.441-13.599 12.534-2.021 24.586-6.912 48.828-14.554 72.045-2.202 6.707 1.065 13.981 7.54 16.794 14.466 6.192 29.938 7.294 44.274 3.727-0.041 0.085-0.072 0.174-0.113 0.266-4.28 10.073-12.22 17.872-22.361 21.975-9.946 4.028-20.866 3.994-30.799-0.048-0.454-0.246-0.959-0.512-1.253-0.645-6.588-2.953-14.333-0.328-17.712 6.072-10.581 20.074-23.398 39.052-38.086 56.405-4.553 5.373-4.267 13.326 0.652 18.36 0.072 0.079 0.945 1.065 1.027 1.14 10.486 10.486 24.173 17.053 38.666 19.033-0.055 0.055-0.106 0.113-0.16 0.167-15.834 15.821-41.486 15.961-57.494 0.433-0.372-0.461-0.812-0.973-1.085-1.253-5.014-5.12-13.141-5.492-18.592-0.881-18.739 15.879-39.352 29.546-61.259 40.625-6.212 3.147-9.066 10.458-6.625 16.981 0.061 0.16 0.495 1.434 0.56 1.587 5.553 13.752 15.578 25.139 28.153 32.628-0.072 0.034-0.147 0.061-0.218 0.085-10.148 4.113-21.272 3.994-31.348-0.273-9.882-4.195-17.579-11.919-21.74-21.787-0.14-0.488-0.307-1.007-0.427-1.321-2.56-6.748-9.885-10.339-16.807-8.192-21.367 6.625-43.848 10.953-66.826 12.855-6.912 0.573-12.295 6.233-12.52 13.165-0.017 0.15-0.102 1.522-0.102 1.669 0 14.94 5.041 29.293 13.892 40.96-0.079 0-0.16 0-0.239 0-22.388 0-40.639-18.053-40.953-40.373 0.055-0.567 0.106-1.212 0.113-1.58 0.113-7.192-5.366-13.24-12.534-13.827-24.593-2.021-48.828-6.912-72.038-14.548-6.653-2.195-13.827 0.986-16.708 7.332-0.061 0.133-0.635 1.287-0.693 1.42-5.806 13.687-6.772 28.839-3.181 43.025-0.068-0.027-0.14-0.061-0.212-0.085-10.073-4.28-17.872-12.22-21.975-22.361-4.028-9.96-4-20.873 0.048-30.799 0.246-0.454 0.512-0.959 0.645-1.253 2.98-6.581 0.321-14.339-6.072-17.712-20.074-10.581-39.052-23.398-56.405-38.086-5.373-4.533-13.326-4.26-18.36 0.652-0.079 0.072-1.065 0.945-1.14 1.027-10.493 10.486-17.053 24.173-19.033 38.666-0.055-0.055-0.113-0.106-0.167-0.16-15.821-15.821-15.968-41.479-0.433-57.494 0.461-0.372 0.973-0.812 1.253-1.085 5.127-5.007 5.506-13.128 0.881-18.592-15.879-18.739-29.546-39.352-40.625-61.259-3.147-6.212-10.472-9.045-16.981-6.625-0.092 0.041-1.3 0.44-1.393 0.474-13.879 5.608-25.313 15.667-32.819 28.245-0.027-0.072-0.061-0.147-0.085-0.225-4.099-10.141-4-21.272 0.273-31.348 4.195-9.882 11.919-17.579 21.787-21.74 0.488-0.14 1.007-0.307 1.321-0.427 6.741-2.56 10.325-9.919 8.192-16.807-6.625-21.367-10.953-43.848-12.855-66.826-0.573-6.912-6.233-12.295-13.165-12.52-0.15-0.010-1.522-0.096-1.669-0.096-14.94 0-29.293 5.041-40.96 13.892v-0.239c0-22.388 18.053-40.639 40.373-40.953 0.679 0.061 1.341 0.085 1.806 0.113 7.086 0 13.018-5.441 13.599-12.534 2.021-24.593 6.912-48.828 14.548-72.038 2.181-6.625-0.98-13.827-7.332-16.708-0.133-0.061-1.287-0.635-1.42-0.693-13.681-5.799-28.853-6.772-43.025-3.181 0.027-0.072 0.061-0.14 0.085-0.212 4.28-10.073 12.22-17.872 22.361-21.975 9.967-4.035 20.886-4.014 30.799 0.048 0.454 0.246 0.959 0.512 1.253 0.645 6.588 2.946 14.333 0.321 17.712-6.072 10.581-20.074 23.398-39.052 38.086-56.405 4.553-5.373 4.267-13.326-0.652-18.36-0.072-0.079-0.945-1.065-1.027-1.14-10.486-10.486-24.173-17.053-38.666-19.033 0.055-0.061 0.106-0.113 0.167-0.174 15.807-15.8 41.465-15.968 57.487-0.427 0.372 0.461 0.812 0.973 1.085 1.253 5.021 5.134 13.121 5.513 18.592 0.881 18.739-15.879 39.352-29.546 61.259-40.625 6.212-3.147 9.066-10.458 6.625-16.981-0.061-0.16-0.495-1.434-0.56-1.587-5.553-13.752-15.578-25.139-28.153-32.628 0.072-0.034 0.147-0.061 0.218-0.085 10.141-4.106 21.272-4 31.348 0.273 9.882 4.195 17.579 11.919 21.74 21.787 0.14 0.488 0.307 1.007 0.427 1.321 2.56 6.748 9.899 10.339 16.807 8.192 21.367-6.625 43.848-10.953 66.826-12.855 6.912-0.573 12.295-6.233 12.52-13.165 0.007-0.147 0.092-1.519 0.092-1.666 0.007-14.94-5.035-29.293-13.885-40.96zM491.52 304.64c-75.288 0-136.533 61.245-136.533 136.533s61.245 136.533 136.533 136.533 136.533-61.245 136.533-136.533-61.245-136.533-136.533-136.533zM491.52 550.4c-60.228 0-109.227-48.998-109.227-109.227s48.998-109.227 109.227-109.227 109.227 48.998 109.227 109.227-48.998 109.227-109.227 109.227z" />
<glyph unicode="&#xea45;" d="M491.52 605.013c-90.487 0-163.84-73.353-163.84-163.84s73.353-163.84 163.84-163.84 163.84 73.353 163.84 163.84-73.353 163.84-163.84 163.84zM491.52 345.6c-52.784 0-95.573 42.79-95.573 95.573s42.79 95.573 95.573 95.573 95.573-42.79 95.573-95.573-42.79-95.573-95.573-95.573z" />
<glyph unicode="&#xea46;" d="M491.52 263.68c-97.874 0-177.493 79.619-177.493 177.493s79.619 177.493 177.493 177.493 177.493-79.619 177.493-177.493-79.619-177.493-177.493-177.493zM491.52 591.36c-82.814 0-150.187-67.372-150.187-150.187s67.372-150.187 150.187-150.187 150.187 67.372 150.187 150.187-67.372 150.187-150.187 150.187zM491.52 331.947c-60.228 0-109.227 48.998-109.227 109.227s48.998 109.227 109.227 109.227 109.227-48.998 109.227-109.227-48.998-109.227-109.227-109.227zM491.52 523.093c-45.172 0-81.92-36.748-81.92-81.92s36.748-81.92 81.92-81.92 81.92 36.748 81.92 81.92-36.748 81.92-81.92 81.92z" />
<glyph unicode="&#xea47;" d="M227.314 539.081c-1.775 0-3.574 0.355-5.308 1.085-6.946 2.932-10.199 10.94-7.26 17.886 16.046 37.973 39.366 71.735 69.315 100.338 5.448 5.212 14.094 5.028 19.306-0.44 5.205-5.455 5.014-14.1-0.44-19.306-27.235-26.013-48.439-56.706-63.034-91.221-2.198-5.209-7.26-8.342-12.578-8.342z" />
<glyph unicode="&#xea48;" d="M204.834 431.626c-0.068 0-0.133 0-0.201 0-7.54 0.106-13.568 6.308-13.459 13.848 0.358 24.986 3.785 49.773 10.199 73.673 1.952 7.274 9.455 11.612 16.719 9.653 7.287-1.952 11.605-9.441 9.653-16.719-5.827-21.726-8.946-44.268-9.267-66.993-0.102-7.475-6.199-13.462-13.643-13.462z" />
</font>
</defs>
</svg>
